<?xml version="1.0" encoding="utf-8"?>
<!-- Generator: Adobe Illustrator 21.0.0, SVG Export Plug-In . SVG Version: 6.00 Build 0)  -->
<svg version="1.1" id="Layer_1" xmlns="http://www.w3.org/2000/svg" xmlns:xlink="http://www.w3.org/1999/xlink" x="0px" y="0px"
	 viewBox="0 0 420 820" style="enable-background:new 0 0 420 820;" xml:space="preserve">
<g>
	<path d="M98.1,85.7V75.5h-1.9V73h1.9v-1.1c0-1.4,0.4-2.5,1.2-3.3s2-1.2,3.4-1.2c0.5,0,1,0.1,1.7,0.2l0,2.6c-0.3-0.1-0.6-0.1-1-0.1
		c-1.3,0-1.9,0.6-1.9,1.8v1h2.5v2.5h-2.5v10.2H98.1z"/>
	<path d="M111.3,85.9c-1.9,0-3.4-0.6-4.5-1.7s-1.8-2.7-1.8-4.6v-0.3c0-1.3,0.2-2.4,0.7-3.4s1.2-1.8,2.1-2.3s1.9-0.8,3.1-0.8
		c1.7,0,3.1,0.5,4.1,1.6s1.5,2.6,1.5,4.7v1.4h-8.1c0.1,0.8,0.4,1.5,1,2s1.2,0.8,2.1,0.8c1.3,0,2.3-0.5,3.1-1.4l1.7,1.9
		c-0.5,0.7-1.2,1.3-2.1,1.7S112.3,85.9,111.3,85.9z M110.9,75.5c-0.7,0-1.2,0.2-1.6,0.7c-0.4,0.5-0.7,1.1-0.8,2h4.7v-0.3
		c0-0.8-0.2-1.3-0.6-1.7C112.2,75.7,111.6,75.5,110.9,75.5z"/>
	<path d="M124.3,85.9c-1.9,0-3.4-0.6-4.5-1.7s-1.8-2.7-1.8-4.6v-0.3c0-1.3,0.2-2.4,0.7-3.4s1.2-1.8,2.1-2.3s1.9-0.8,3.1-0.8
		c1.7,0,3.1,0.5,4.1,1.6s1.5,2.6,1.5,4.7v1.4h-8.1c0.1,0.8,0.4,1.5,1,2s1.2,0.8,2.1,0.8c1.3,0,2.3-0.5,3.1-1.4l1.7,1.9
		c-0.5,0.7-1.2,1.3-2.1,1.7S125.3,85.9,124.3,85.9z M123.9,75.5c-0.7,0-1.2,0.2-1.6,0.7c-0.4,0.5-0.7,1.1-0.8,2h4.7v-0.3
		c0-0.8-0.2-1.3-0.6-1.7C125.1,75.7,124.6,75.5,123.9,75.5z"/>
	<path d="M130.9,79.2c0-2,0.4-3.6,1.3-4.7s2.1-1.8,3.6-1.8c1.2,0,2.3,0.5,3.1,1.4v-6.5h3.4v18h-3.1l-0.2-1.3
		c-0.8,1.1-1.9,1.6-3.3,1.6c-1.5,0-2.7-0.6-3.6-1.8S130.9,81.3,130.9,79.2z M134.3,79.5c0,1.2,0.2,2.1,0.6,2.7s1,1,1.8,1
		c1,0,1.8-0.4,2.2-1.3v-5c-0.4-0.9-1.2-1.3-2.2-1.3C135.1,75.5,134.3,76.8,134.3,79.5z"/>
	<path d="M149.7,68.6l4.4,12.4l4.4-12.4h4.6v17.1h-3.5V81l0.4-8.1l-4.6,12.7h-2.4L148.3,73l0.4,8v4.7h-3.5V68.6H149.7z"/>
	<path d="M171.8,85.9c-1.9,0-3.4-0.6-4.5-1.7s-1.8-2.7-1.8-4.6v-0.3c0-1.3,0.2-2.4,0.7-3.4s1.2-1.8,2.1-2.3s1.9-0.8,3.1-0.8
		c1.7,0,3.1,0.5,4.1,1.6S177,77,177,79v1.4h-8.1c0.1,0.8,0.4,1.5,1,2s1.2,0.8,2.1,0.8c1.3,0,2.3-0.5,3.1-1.4l1.7,1.9
		c-0.5,0.7-1.2,1.3-2.1,1.7S172.8,85.9,171.8,85.9z M171.4,75.5c-0.7,0-1.2,0.2-1.6,0.7c-0.4,0.5-0.7,1.1-0.8,2h4.7v-0.3
		c0-0.8-0.2-1.3-0.6-1.7C172.7,75.7,172.1,75.5,171.4,75.5z"/>
	<path d="M194,81.2c0-0.7-0.2-1.2-0.7-1.5s-1.3-0.7-2.5-1.1s-2.2-0.8-2.9-1.2c-1.9-1-2.9-2.5-2.9-4.2c0-0.9,0.3-1.7,0.8-2.5
		s1.3-1.3,2.2-1.7s2.1-0.6,3.3-0.6c1.2,0,2.3,0.2,3.3,0.7s1.7,1.1,2.2,1.9s0.8,1.7,0.8,2.7H194c0-0.8-0.2-1.4-0.7-1.8
		s-1.2-0.7-2.1-0.7c-0.9,0-1.5,0.2-2,0.5s-0.7,0.8-0.7,1.4c0,0.6,0.3,1,0.8,1.4s1.4,0.7,2.5,1.1c2,0.6,3.5,1.3,4.4,2.2
		s1.4,2,1.4,3.3c0,1.5-0.6,2.6-1.7,3.5s-2.6,1.3-4.5,1.3c-1.3,0-2.5-0.2-3.6-0.7s-1.9-1.1-2.5-2s-0.8-1.8-0.8-2.9h3.5
		c0,1.9,1.1,2.8,3.4,2.8c0.8,0,1.5-0.2,2-0.5S194,81.8,194,81.2z"/>
	<path d="M207.2,84.4c-0.8,1-2,1.5-3.5,1.5c-1.4,0-2.4-0.4-3.1-1.2s-1.1-1.9-1.1-3.4V73h3.4v8.2c0,1.3,0.6,2,1.8,2
		c1.1,0,1.9-0.4,2.4-1.2v-9h3.4v12.7h-3.2L207.2,84.4z"/>
	<path d="M224.5,79.4c0,2-0.4,3.5-1.3,4.7s-2.1,1.8-3.6,1.8c-1.3,0-2.3-0.4-3.1-1.3v6h-3.4V73h3.1l0.1,1.2c0.8-1,1.9-1.5,3.2-1.5
		c1.6,0,2.8,0.6,3.6,1.7s1.3,2.8,1.3,4.8V79.4z M221.1,79.2c0-1.2-0.2-2.1-0.6-2.7s-1-1-1.8-1c-1.1,0-1.8,0.4-2.2,1.2v5.2
		c0.4,0.8,1.2,1.3,2.2,1.3C220.3,83.2,221.1,81.8,221.1,79.2z"/>
	<path d="M232.4,85.9c-1.9,0-3.4-0.6-4.5-1.7s-1.8-2.7-1.8-4.6v-0.3c0-1.3,0.2-2.4,0.7-3.4s1.2-1.8,2.1-2.3s1.9-0.8,3.1-0.8
		c1.7,0,3.1,0.5,4.1,1.6s1.5,2.6,1.5,4.7v1.4h-8.1c0.1,0.8,0.4,1.5,1,2s1.2,0.8,2.1,0.8c1.3,0,2.3-0.5,3.1-1.4l1.7,1.9
		c-0.5,0.7-1.2,1.3-2.1,1.7S233.5,85.9,232.4,85.9z M232,75.5c-0.7,0-1.2,0.2-1.6,0.7c-0.4,0.5-0.7,1.1-0.8,2h4.7v-0.3
		c0-0.8-0.2-1.3-0.6-1.7C233.3,75.7,232.8,75.5,232,75.5z"/>
	<path d="M246.7,76.2c-0.5-0.1-0.9-0.1-1.2-0.1c-1.3,0-2.1,0.4-2.5,1.3v8.3h-3.4V73h3.2l0.1,1.5c0.7-1.2,1.6-1.7,2.8-1.7
		c0.4,0,0.7,0.1,1.1,0.2L246.7,76.2z"/>
	<path d="M251.5,73l0.1,1.4c0.9-1.1,2.1-1.7,3.6-1.7c1.6,0,2.8,0.6,3.4,1.9c0.9-1.3,2.2-1.9,3.8-1.9c1.4,0,2.4,0.4,3.1,1.2
		s1,2,1,3.6v8.1h-3.4v-8.1c0-0.7-0.1-1.2-0.4-1.6s-0.8-0.5-1.5-0.5c-1,0-1.7,0.5-2.1,1.5l0,8.7h-3.4v-8.1c0-0.7-0.1-1.3-0.4-1.6
		s-0.8-0.5-1.5-0.5c-1,0-1.7,0.4-2.1,1.2v9h-3.4V73H251.5z"/>
	<path d="M276.4,85.7c-0.2-0.3-0.3-0.7-0.3-1.1c-0.8,0.9-1.9,1.4-3.2,1.4c-1.2,0-2.3-0.4-3.1-1.1s-1.2-1.6-1.2-2.7
		c0-1.3,0.5-2.4,1.5-3.1s2.4-1.1,4.3-1.1h1.6v-0.7c0-0.6-0.2-1.1-0.5-1.4s-0.8-0.5-1.4-0.5c-0.6,0-1,0.1-1.3,0.4s-0.5,0.6-0.5,1.1
		h-3.4c0-0.7,0.2-1.4,0.7-2s1.1-1.1,1.9-1.5s1.8-0.5,2.8-0.5c1.6,0,2.8,0.4,3.7,1.2s1.4,1.9,1.4,3.3v5.5c0,1.2,0.2,2.1,0.5,2.7v0.2
		H276.4z M273.6,83.3c0.5,0,1-0.1,1.4-0.3s0.7-0.5,0.9-0.9v-2.2h-1.3c-1.7,0-2.6,0.6-2.7,1.8l0,0.2c0,0.4,0.1,0.8,0.4,1
		S273.1,83.3,273.6,83.3z"/>
	<path d="M289.1,76.2c-0.5-0.1-0.9-0.1-1.2-0.1c-1.3,0-2.1,0.4-2.5,1.3v8.3H282V73h3.2l0.1,1.5c0.7-1.2,1.6-1.7,2.8-1.7
		c0.4,0,0.7,0.1,1.1,0.2L289.1,76.2z"/>
	<path d="M295.3,80.6l-1.2,1.2v3.9h-3.4v-18h3.4v10l0.7-0.8L298,73h4.1l-4.6,5.3l5,7.4h-3.9L295.3,80.6z"/>
	<path d="M309.1,85.9c-1.9,0-3.4-0.6-4.5-1.7s-1.8-2.7-1.8-4.6v-0.3c0-1.3,0.2-2.4,0.7-3.4s1.2-1.8,2.1-2.3s1.9-0.8,3.1-0.8
		c1.7,0,3.1,0.5,4.1,1.6s1.5,2.6,1.5,4.7v1.4h-8.1c0.1,0.8,0.4,1.5,1,2s1.2,0.8,2.1,0.8c1.3,0,2.3-0.5,3.1-1.4l1.7,1.9
		c-0.5,0.7-1.2,1.3-2.1,1.7S310.2,85.9,309.1,85.9z M308.8,75.5c-0.7,0-1.2,0.2-1.6,0.7c-0.4,0.5-0.7,1.1-0.8,2h4.7v-0.3
		c0-0.8-0.2-1.3-0.6-1.7C310,75.7,309.5,75.5,308.8,75.5z"/>
	<path d="M320.3,69.9V73h2.2v2.5h-2.2v6.3c0,0.5,0.1,0.8,0.3,1s0.5,0.3,1,0.3c0.4,0,0.7,0,1-0.1v2.6c-0.7,0.2-1.3,0.3-2.1,0.3
		c-2.4,0-3.6-1.2-3.6-3.6v-6.8h-1.9V73h1.9v-3.1H320.3z"/>
</g>
<g>
	<path d="M59.1,195.7v1.4h-0.3c-1.3,0-2.3,0.4-3,1.1s-1.2,1.7-1.3,3.1c0.7-0.8,1.6-1.2,2.8-1.2c1.1,0,2,0.4,2.7,1.2s1,1.8,1,3
		c0,1.3-0.4,2.4-1.1,3.2s-1.7,1.2-2.9,1.2c-1.2,0-2.2-0.5-3-1.4s-1.1-2.2-1.1-3.6V203c0-2.4,0.5-4.2,1.5-5.4s2.5-1.9,4.5-1.9H59.1z
		 M57,201.5c-0.6,0-1.1,0.2-1.5,0.5s-0.8,0.8-1,1.3v0.6c0,1.1,0.2,1.9,0.7,2.5s1.1,1,1.8,1c0.7,0,1.3-0.3,1.7-0.8s0.6-1.2,0.6-2.1
		c0-0.9-0.2-1.6-0.6-2.1S57.7,201.5,57,201.5z"/>
	<path d="M70.9,203c0,1.9-0.3,3.3-1,4.2s-1.7,1.4-3,1.4c-1.4,0-2.4-0.5-3-1.4s-1-2.3-1-4.1v-2.2c0-1.9,0.3-3.3,1-4.2
		s1.7-1.4,3.1-1.4c1.4,0,2.4,0.4,3,1.3s1,2.2,1,4.1V203z M69.2,200.8c0-1.4-0.2-2.4-0.6-3s-1-0.9-1.8-0.9c-0.8,0-1.4,0.3-1.8,0.9
		s-0.6,1.6-0.6,2.9v2.6c0,1.4,0.2,2.4,0.6,3.1s1,1,1.8,1c0.8,0,1.4-0.3,1.8-0.9s0.6-1.6,0.6-2.9V200.8z"/>
	<path d="M81,203c0,1.9-0.3,3.3-1,4.2s-1.7,1.4-3,1.4c-1.4,0-2.4-0.5-3-1.4s-1-2.3-1-4.1v-2.2c0-1.9,0.3-3.3,1-4.2s1.7-1.4,3.1-1.4
		c1.4,0,2.4,0.4,3,1.3s1,2.2,1,4.1V203z M79.3,200.8c0-1.4-0.2-2.4-0.6-3s-1-0.9-1.8-0.9c-0.8,0-1.4,0.3-1.8,0.9s-0.6,1.6-0.6,2.9
		v2.6c0,1.4,0.2,2.4,0.6,3.1s1,1,1.8,1c0.8,0,1.4-0.3,1.8-0.9s0.6-1.6,0.6-2.9V200.8z"/>
	<path d="M88.4,208.5h-1.6v-10.8l-3.3,1.2v-1.5l4.7-1.7h0.3V208.5z"/>
	<path d="M101.5,208.5h-8.4v-1.2l4.4-4.9c0.7-0.7,1.1-1.3,1.4-1.8s0.4-0.9,0.4-1.4c0-0.7-0.2-1.2-0.6-1.6s-0.9-0.6-1.6-0.6
		c-0.8,0-1.4,0.2-1.9,0.7s-0.7,1.1-0.7,1.9h-1.6c0-1.2,0.4-2.1,1.1-2.9s1.8-1.1,3-1.1c1.2,0,2.1,0.3,2.8,0.9s1,1.5,1,2.5
		c0,1.3-0.8,2.8-2.4,4.5l-3.4,3.7h6.4V208.5z"/>
	<path d="M111.5,196.6l-5.3,11.9h-1.7l5.3-11.5h-6.9v-1.3h8.6V196.6z"/>
</g>
<g>
	<path d="M145.6,124.4H140v4.5h6.4v1.4h-8.1v-12.8h8v1.4H140v4.1h5.5V124.4z"/>
	<path d="M151.5,124.3l2.1-3.5h1.9l-3.1,4.7l3.2,4.8h-1.9l-2.2-3.6l-2.2,3.6h-1.9l3.2-4.8l-3.1-4.7h1.9L151.5,124.3z"/>
	<path d="M163.1,130.3c-0.1-0.2-0.2-0.5-0.2-1c-0.8,0.8-1.7,1.2-2.7,1.2c-0.9,0-1.7-0.3-2.3-0.8s-0.9-1.2-0.9-2c0-1,0.4-1.8,1.1-2.3
		s1.8-0.8,3.2-0.8h1.6v-0.7c0-0.6-0.2-1-0.5-1.4s-0.8-0.5-1.5-0.5c-0.6,0-1.1,0.1-1.5,0.4s-0.6,0.6-0.6,1.1h-1.6
		c0-0.5,0.2-0.9,0.5-1.4s0.8-0.8,1.4-1.1s1.2-0.4,1.9-0.4c1.1,0,2,0.3,2.6,0.8s0.9,1.3,1,2.3v4.4c0,0.9,0.1,1.6,0.3,2.1v0.1H163.1z
		 M160.4,129.1c0.5,0,1-0.1,1.5-0.4s0.8-0.6,1-1v-2h-1.3c-2,0-3,0.6-3,1.7c0,0.5,0.2,0.9,0.5,1.2S159.9,129.1,160.4,129.1z"/>
	<path d="M168.5,120.8l0,1.1c0.7-0.8,1.6-1.2,2.8-1.2c1.3,0,2.2,0.5,2.7,1.5c0.3-0.5,0.7-0.8,1.2-1.1s1.1-0.4,1.8-0.4
		c2.1,0,3.1,1.1,3.2,3.3v6.4h-1.6v-6.3c0-0.7-0.2-1.2-0.5-1.5s-0.8-0.5-1.6-0.5c-0.6,0-1.1,0.2-1.5,0.5s-0.6,0.8-0.7,1.5v6.3h-1.6
		v-6.2c0-1.4-0.7-2.1-2-2.1c-1.1,0-1.8,0.5-2.2,1.4v6.9H167v-9.5H168.5z"/>
	<path d="M190.8,125.7c0,1.4-0.3,2.6-1,3.5s-1.6,1.3-2.7,1.3c-1.2,0-2.1-0.4-2.7-1.1v4.6h-1.6v-13.2h1.5l0.1,1.1
		c0.7-0.8,1.6-1.2,2.8-1.2c1.1,0,2,0.4,2.7,1.3s1,2.1,1,3.6V125.7z M189.2,125.5c0-1.1-0.2-1.9-0.7-2.5s-1.1-0.9-1.9-0.9
		c-1,0-1.7,0.4-2.2,1.3v4.5c0.5,0.9,1.2,1.3,2.2,1.3c0.8,0,1.4-0.3,1.9-0.9S189.2,126.7,189.2,125.5z"/>
	<path d="M194.6,130.3H193v-13.5h1.6V130.3z"/>
	<path d="M201.2,130.5c-1.3,0-2.3-0.4-3.1-1.3s-1.2-2-1.2-3.4v-0.3c0-0.9,0.2-1.8,0.5-2.5s0.9-1.3,1.5-1.7s1.3-0.6,2.1-0.6
		c1.2,0,2.2,0.4,2.9,1.2s1,2,1,3.5v0.7h-6.4c0,0.9,0.3,1.7,0.8,2.3s1.2,0.9,2,0.9c0.6,0,1.1-0.1,1.5-0.4s0.7-0.5,1-0.9l1,0.8
		C204,129.9,202.8,130.5,201.2,130.5z M201,122c-0.7,0-1.2,0.2-1.7,0.7s-0.7,1.1-0.8,2h4.8v-0.1c0-0.8-0.3-1.5-0.7-1.9
		S201.7,122,201,122z"/>
	<path d="M215.3,124.6c-1.4-0.4-2.5-0.9-3.2-1.5s-1-1.4-1-2.2c0-1,0.4-1.8,1.2-2.5s1.9-1,3.1-1c0.9,0,1.7,0.2,2.4,0.5
		s1.2,0.8,1.6,1.4s0.6,1.3,0.6,2h-1.7c0-0.8-0.2-1.4-0.7-1.8s-1.2-0.7-2.1-0.7c-0.8,0-1.5,0.2-1.9,0.6c-0.5,0.4-0.7,0.9-0.7,1.5
		c0,0.5,0.2,1,0.7,1.3s1.2,0.7,2.3,1s1.9,0.6,2.5,1s1,0.8,1.3,1.3s0.4,1,0.4,1.7c0,1-0.4,1.9-1.2,2.5s-1.9,0.9-3.2,0.9
		c-0.9,0-1.7-0.2-2.5-0.5s-1.3-0.8-1.8-1.4s-0.6-1.3-0.6-2h1.7c0,0.8,0.3,1.4,0.9,1.8s1.3,0.7,2.3,0.7c0.9,0,1.6-0.2,2-0.5
		s0.7-0.9,0.7-1.5s-0.2-1.1-0.7-1.5S216.4,125,215.3,124.6z"/>
	<path d="M224.1,118.5v2.3h1.8v1.3h-1.8v5.9c0,0.4,0.1,0.7,0.2,0.9c0.2,0.2,0.4,0.3,0.8,0.3c0.2,0,0.4,0,0.8-0.1v1.3
		c-0.4,0.1-0.8,0.2-1.2,0.2c-0.7,0-1.3-0.2-1.6-0.7s-0.6-1.1-0.6-1.9v-5.9h-1.7v-1.3h1.7v-2.3H224.1z"/>
	<path d="M232.4,122.3c-0.2,0-0.5-0.1-0.8-0.1c-1.1,0-1.8,0.5-2.2,1.4v6.8h-1.6v-9.5h1.6l0,1.1c0.5-0.8,1.3-1.3,2.3-1.3
		c0.3,0,0.6,0,0.7,0.1V122.3z"/>
	<path d="M237.7,130.5c-1.3,0-2.3-0.4-3.1-1.3s-1.2-2-1.2-3.4v-0.3c0-0.9,0.2-1.8,0.5-2.5s0.9-1.3,1.5-1.7s1.3-0.6,2.1-0.6
		c1.2,0,2.2,0.4,2.9,1.2s1,2,1,3.5v0.7h-6.4c0,0.9,0.3,1.7,0.8,2.3s1.2,0.9,2,0.9c0.6,0,1.1-0.1,1.5-0.4s0.7-0.5,1-0.9l1,0.8
		C240.5,129.9,239.3,130.5,237.7,130.5z M237.5,122c-0.7,0-1.2,0.2-1.7,0.7s-0.7,1.1-0.8,2h4.8v-0.1c0-0.8-0.3-1.5-0.7-1.9
		S238.1,122,237.5,122z"/>
	<path d="M247.2,130.5c-1.3,0-2.3-0.4-3.1-1.3s-1.2-2-1.2-3.4v-0.3c0-0.9,0.2-1.8,0.5-2.5s0.9-1.3,1.5-1.7s1.3-0.6,2.1-0.6
		c1.2,0,2.2,0.4,2.9,1.2s1,2,1,3.5v0.7h-6.4c0,0.9,0.3,1.7,0.8,2.3s1.2,0.9,2,0.9c0.6,0,1.1-0.1,1.5-0.4s0.7-0.5,1-0.9l1,0.8
		C250,129.9,248.8,130.5,247.2,130.5z M247,122c-0.7,0-1.2,0.2-1.7,0.7s-0.7,1.1-0.8,2h4.8v-0.1c0-0.8-0.3-1.5-0.7-1.9
		S247.7,122,247,122z"/>
	<path d="M255,118.5v2.3h1.8v1.3H255v5.9c0,0.4,0.1,0.7,0.2,0.9c0.2,0.2,0.4,0.3,0.8,0.3c0.2,0,0.4,0,0.8-0.1v1.3
		c-0.4,0.1-0.8,0.2-1.2,0.2c-0.7,0-1.3-0.2-1.6-0.7s-0.6-1.1-0.6-1.9v-5.9h-1.7v-1.3h1.7v-2.3H255z"/>
	<path d="M269.3,117.5v1.4H269c-1.3,0-2.3,0.4-3,1.1s-1.2,1.7-1.3,3.1c0.7-0.8,1.6-1.2,2.8-1.2c1.1,0,2,0.4,2.7,1.2s1,1.8,1,3
		c0,1.3-0.4,2.4-1.1,3.2s-1.7,1.2-2.9,1.2c-1.2,0-2.2-0.5-3-1.4s-1.1-2.2-1.1-3.6v-0.6c0-2.4,0.5-4.2,1.5-5.4s2.5-1.9,4.5-1.9H269.3
		z M267.2,123.3c-0.6,0-1.1,0.2-1.5,0.5s-0.8,0.8-1,1.3v0.6c0,1.1,0.2,1.9,0.7,2.5s1.1,1,1.8,1c0.7,0,1.3-0.3,1.7-0.8
		s0.6-1.2,0.6-2.1c0-0.9-0.2-1.6-0.6-2.1S267.9,123.3,267.2,123.3z"/>
	<path d="M281.1,124.9c0,1.9-0.3,3.3-1,4.2s-1.7,1.4-3,1.4c-1.4,0-2.4-0.5-3-1.4s-1-2.3-1-4.1v-2.2c0-1.9,0.3-3.3,1-4.2
		s1.7-1.4,3.1-1.4c1.4,0,2.4,0.4,3,1.3s1,2.2,1,4.1V124.9z M279.5,122.7c0-1.4-0.2-2.4-0.6-3s-1-0.9-1.8-0.9c-0.8,0-1.4,0.3-1.8,0.9
		s-0.6,1.6-0.6,2.9v2.6c0,1.4,0.2,2.4,0.6,3.1s1,1,1.8,1c0.8,0,1.4-0.3,1.8-0.9s0.6-1.6,0.6-2.9V122.7z"/>
</g>
<g>
	<path d="M152.3,154.9c0,1.9-0.3,3.3-1,4.2s-1.7,1.4-3,1.4c-1.4,0-2.4-0.5-3-1.4s-1-2.3-1-4.1v-2.2c0-1.9,0.3-3.3,1-4.2
		s1.7-1.4,3.1-1.4c1.4,0,2.4,0.4,3,1.3s1,2.2,1,4.1V154.9z M150.6,152.7c0-1.4-0.2-2.4-0.6-3s-1-0.9-1.8-0.9c-0.8,0-1.4,0.3-1.8,0.9
		s-0.6,1.6-0.6,2.9v2.6c0,1.4,0.2,2.4,0.6,3.1s1,1,1.8,1c0.8,0,1.4-0.3,1.8-0.9s0.6-1.6,0.6-2.9V152.7z"/>
	<path d="M162.1,150.9c0,0.6-0.2,1.2-0.5,1.7s-0.8,0.9-1.4,1.2c0.7,0.3,1.2,0.7,1.6,1.3s0.6,1.2,0.6,1.9c0,1.1-0.4,2-1.1,2.6
		s-1.7,1-2.9,1c-1.2,0-2.2-0.3-3-1s-1.1-1.5-1.1-2.6c0-0.7,0.2-1.3,0.6-1.9s0.9-1,1.6-1.3c-0.6-0.3-1-0.7-1.3-1.2s-0.5-1.1-0.5-1.7
		c0-1.1,0.3-1.9,1-2.6s1.6-0.9,2.7-0.9c1.1,0,2,0.3,2.7,0.9S162.1,149.8,162.1,150.9z M160.8,156.8c0-0.7-0.2-1.3-0.7-1.7
		s-1-0.7-1.8-0.7s-1.3,0.2-1.8,0.7s-0.7,1-0.7,1.8s0.2,1.3,0.6,1.7s1,0.6,1.8,0.6c0.8,0,1.4-0.2,1.8-0.6S160.8,157.6,160.8,156.8z
		 M158.3,148.7c-0.6,0-1.2,0.2-1.6,0.6s-0.6,0.9-0.6,1.6c0,0.7,0.2,1.2,0.6,1.6s0.9,0.6,1.6,0.6s1.2-0.2,1.6-0.6s0.6-0.9,0.6-1.6
		s-0.2-1.2-0.6-1.6S158.9,148.7,158.3,148.7z"/>
	<path d="M169.8,160.3h-1.6v-10.8l-3.3,1.2v-1.5l4.7-1.7h0.3V160.3z"/>
	<path d="M175.3,153.9l0.7-6.4h6.6v1.5h-5.2l-0.4,3.5c0.6-0.4,1.3-0.6,2.1-0.6c1.2,0,2.1,0.4,2.8,1.2s1,1.8,1,3.1
		c0,1.3-0.4,2.4-1.1,3.1s-1.7,1.1-3,1.1c-1.1,0-2.1-0.3-2.8-0.9s-1.1-1.5-1.2-2.6h1.5c0.1,0.7,0.4,1.3,0.8,1.7s1,0.6,1.7,0.6
		c0.8,0,1.3-0.3,1.8-0.8s0.6-1.2,0.6-2.1c0-0.9-0.2-1.5-0.7-2.1s-1.1-0.8-1.9-0.8c-0.7,0-1.3,0.2-1.7,0.5l-0.4,0.4L175.3,153.9z"/>
	<path d="M198,148.9h-4.1v11.4h-1.7v-11.4h-4.1v-1.4h9.9V148.9z"/>
	<path d="M198.4,155.5c0-0.9,0.2-1.8,0.5-2.5s0.9-1.3,1.5-1.7s1.4-0.6,2.2-0.6c1.3,0,2.3,0.4,3.1,1.3s1.2,2.1,1.2,3.6v0.1
		c0,0.9-0.2,1.8-0.5,2.5s-0.9,1.3-1.5,1.7s-1.4,0.6-2.3,0.6c-1.3,0-2.3-0.4-3.1-1.3s-1.2-2.1-1.2-3.6V155.5z M200,155.7
		c0,1.1,0.2,1.9,0.7,2.5s1.1,1,2,1c0.8,0,1.5-0.3,2-1s0.7-1.6,0.7-2.7c0-1-0.2-1.9-0.7-2.5s-1.2-1-2-1c-0.8,0-1.5,0.3-1.9,1
		S200,154.5,200,155.7z"/>
	<path d="M217.5,158.1l1.8-7.3h1.6l-2.8,9.5h-1.3l-2.3-7.2l-2.3,7.2H211l-2.8-9.5h1.6l1.9,7.1l2.2-7.1h1.3L217.5,158.1z"/>
	<path d="M224.1,150.8l0.1,1.2c0.7-0.9,1.7-1.4,2.8-1.4c2,0,3,1.1,3,3.4v6.3h-1.6V154c0-0.7-0.2-1.2-0.5-1.5s-0.8-0.5-1.4-0.5
		c-0.5,0-1,0.1-1.4,0.4s-0.7,0.7-0.9,1.1v6.8h-1.6v-9.5H224.1z"/>
	<path d="M238.1,157.8c0-0.4-0.2-0.8-0.5-1s-0.9-0.5-1.7-0.6s-1.5-0.4-2-0.6s-0.8-0.5-1.1-0.9s-0.3-0.7-0.3-1.2c0-0.8,0.3-1.4,1-2
		s1.5-0.8,2.5-0.8c1.1,0,2,0.3,2.6,0.8s1,1.3,1,2.1H238c0-0.4-0.2-0.8-0.6-1.2s-0.9-0.5-1.4-0.5c-0.6,0-1.1,0.1-1.4,0.4
		s-0.5,0.6-0.5,1c0,0.4,0.2,0.7,0.5,0.9s0.9,0.4,1.7,0.6s1.5,0.4,2,0.7s0.9,0.6,1.1,0.9s0.4,0.8,0.4,1.3c0,0.8-0.3,1.5-1,2
		s-1.6,0.8-2.6,0.8c-0.8,0-1.4-0.1-2-0.4s-1-0.6-1.4-1.1s-0.5-1-0.5-1.6h1.6c0,0.5,0.2,1,0.7,1.3s0.9,0.5,1.6,0.5
		c0.6,0,1.1-0.1,1.5-0.4S238.1,158.2,238.1,157.8z"/>
	<path d="M244,148.5v2.3h1.8v1.3H244v5.9c0,0.4,0.1,0.7,0.2,0.9c0.2,0.2,0.4,0.3,0.8,0.3c0.2,0,0.4,0,0.8-0.1v1.3
		c-0.4,0.1-0.8,0.2-1.2,0.2c-0.7,0-1.3-0.2-1.6-0.7s-0.6-1.1-0.6-1.9v-5.9h-1.7v-1.3h1.7v-2.3H244z"/>
	<path d="M253.6,160.3c-0.1-0.2-0.2-0.5-0.2-1c-0.8,0.8-1.7,1.2-2.7,1.2c-0.9,0-1.7-0.3-2.3-0.8s-0.9-1.2-0.9-2c0-1,0.4-1.8,1.1-2.3
		s1.8-0.8,3.2-0.8h1.6v-0.7c0-0.6-0.2-1-0.5-1.4s-0.8-0.5-1.5-0.5c-0.6,0-1.1,0.1-1.5,0.4s-0.6,0.6-0.6,1.1h-1.6
		c0-0.5,0.2-0.9,0.5-1.4s0.8-0.8,1.4-1.1s1.2-0.4,1.9-0.4c1.1,0,2,0.3,2.6,0.8s0.9,1.3,1,2.3v4.4c0,0.9,0.1,1.6,0.3,2.1v0.1H253.6z
		 M250.9,159.1c0.5,0,1-0.1,1.5-0.4s0.8-0.6,1-1v-2H252c-2,0-3,0.6-3,1.7c0,0.5,0.2,0.9,0.5,1.2S250.3,159.1,250.9,159.1z"/>
	<path d="M257.5,148.3c0-0.3,0.1-0.5,0.2-0.7s0.4-0.3,0.7-0.3s0.6,0.1,0.7,0.3s0.2,0.4,0.2,0.7s-0.1,0.5-0.2,0.7s-0.4,0.3-0.7,0.3
		s-0.6-0.1-0.7-0.3S257.5,148.6,257.5,148.3z M259.2,160.3h-1.6v-9.5h1.6V160.3z"/>
	<path d="M266.4,152.3c-0.2,0-0.5-0.1-0.8-0.1c-1.1,0-1.8,0.5-2.2,1.4v6.8h-1.6v-9.5h1.6l0,1.1c0.5-0.8,1.3-1.3,2.3-1.3
		c0.3,0,0.6,0,0.7,0.1V152.3z"/>
	<path d="M273.5,157.8c0-0.4-0.2-0.8-0.5-1s-0.9-0.5-1.7-0.6s-1.5-0.4-2-0.6s-0.8-0.5-1.1-0.9s-0.3-0.7-0.3-1.2c0-0.8,0.3-1.4,1-2
		s1.5-0.8,2.5-0.8c1.1,0,2,0.3,2.6,0.8s1,1.3,1,2.1h-1.6c0-0.4-0.2-0.8-0.6-1.2s-0.9-0.5-1.4-0.5c-0.6,0-1.1,0.1-1.4,0.4
		s-0.5,0.6-0.5,1c0,0.4,0.2,0.7,0.5,0.9s0.9,0.4,1.7,0.6s1.5,0.4,2,0.7s0.9,0.6,1.1,0.9s0.4,0.8,0.4,1.3c0,0.8-0.3,1.5-1,2
		s-1.6,0.8-2.6,0.8c-0.8,0-1.4-0.1-2-0.4s-1-0.6-1.4-1.1s-0.5-1-0.5-1.6h1.6c0,0.5,0.2,1,0.7,1.3s0.9,0.5,1.6,0.5
		c0.6,0,1.1-0.1,1.5-0.4S273.5,158.2,273.5,157.8z"/>
</g>
<g>
	<path d="M60.5,234.5c0,0.6-0.2,1.2-0.5,1.7s-0.8,0.9-1.4,1.2c0.7,0.3,1.2,0.7,1.6,1.3s0.6,1.2,0.6,1.9c0,1.1-0.4,2-1.1,2.6
		s-1.7,1-2.9,1c-1.2,0-2.2-0.3-3-1s-1.1-1.5-1.1-2.6c0-0.7,0.2-1.3,0.6-1.9s0.9-1,1.6-1.3c-0.6-0.3-1-0.7-1.3-1.2s-0.5-1.1-0.5-1.7
		c0-1.1,0.3-1.9,1-2.6s1.6-0.9,2.7-0.9c1.1,0,2,0.3,2.7,0.9S60.5,233.5,60.5,234.5z M59.2,240.5c0-0.7-0.2-1.3-0.7-1.7
		s-1-0.7-1.8-0.7s-1.3,0.2-1.8,0.7s-0.7,1-0.7,1.8s0.2,1.3,0.6,1.7s1,0.6,1.8,0.6c0.8,0,1.4-0.2,1.8-0.6S59.2,241.2,59.2,240.5z
		 M56.7,232.4c-0.6,0-1.2,0.2-1.6,0.6s-0.6,0.9-0.6,1.6c0,0.7,0.2,1.2,0.6,1.6s0.9,0.6,1.6,0.6s1.2-0.2,1.6-0.6s0.6-0.9,0.6-1.6
		s-0.2-1.2-0.6-1.6S57.3,232.4,56.7,232.4z"/>
	<path d="M70.6,234.5c0,0.6-0.2,1.2-0.5,1.7s-0.8,0.9-1.4,1.2c0.7,0.3,1.2,0.7,1.6,1.3s0.6,1.2,0.6,1.9c0,1.1-0.4,2-1.1,2.6
		s-1.7,1-2.9,1c-1.2,0-2.2-0.3-3-1s-1.1-1.5-1.1-2.6c0-0.7,0.2-1.3,0.6-1.9s0.9-1,1.6-1.3c-0.6-0.3-1-0.7-1.3-1.2s-0.5-1.1-0.5-1.7
		c0-1.1,0.3-1.9,1-2.6s1.6-0.9,2.7-0.9c1.1,0,2,0.3,2.7,0.9S70.6,233.5,70.6,234.5z M69.3,240.5c0-0.7-0.2-1.3-0.7-1.7
		s-1-0.7-1.8-0.7s-1.3,0.2-1.8,0.7s-0.7,1-0.7,1.8s0.2,1.3,0.6,1.7s1,0.6,1.8,0.6c0.8,0,1.4-0.2,1.8-0.6S69.3,241.2,69.3,240.5z
		 M66.8,232.4c-0.6,0-1.2,0.2-1.6,0.6s-0.6,0.9-0.6,1.6c0,0.7,0.2,1.2,0.6,1.6s0.9,0.6,1.6,0.6s1.2-0.2,1.6-0.6s0.6-0.9,0.6-1.6
		s-0.2-1.2-0.6-1.6S67.4,232.4,66.8,232.4z"/>
	<path d="M75.3,236.8h1.2c0.8,0,1.4-0.2,1.8-0.6s0.7-0.9,0.7-1.6c0-1.5-0.7-2.3-2.2-2.3c-0.7,0-1.3,0.2-1.7,0.6s-0.6,0.9-0.6,1.6
		h-1.6c0-1,0.4-1.9,1.1-2.5s1.7-1,2.8-1c1.2,0,2.2,0.3,2.8,1s1,1.5,1,2.7c0,0.6-0.2,1.1-0.5,1.6s-0.9,0.9-1.5,1.2
		c0.7,0.2,1.2,0.6,1.6,1.1s0.6,1.1,0.6,1.9c0,1.1-0.4,2.1-1.1,2.7s-1.7,1-2.9,1s-2.2-0.3-2.9-1s-1.1-1.5-1.1-2.6h1.6
		c0,0.7,0.2,1.2,0.7,1.6s1,0.6,1.8,0.6c0.8,0,1.4-0.2,1.8-0.6s0.6-1,0.6-1.8c0-0.7-0.2-1.3-0.7-1.7s-1.1-0.6-2-0.6h-1.2V236.8z"/>
	<path d="M89.9,239.7h1.8v1.3h-1.8v3h-1.6v-3h-5.8v-1l5.7-8.9h1.7V239.7z M84.3,239.7h4v-6.3l-0.2,0.4L84.3,239.7z"/>
	<path d="M100.9,234.5c0,0.6-0.2,1.2-0.5,1.7s-0.8,0.9-1.4,1.2c0.7,0.3,1.2,0.7,1.6,1.3s0.6,1.2,0.6,1.9c0,1.1-0.4,2-1.1,2.6
		s-1.7,1-2.9,1c-1.2,0-2.2-0.3-3-1s-1.1-1.5-1.1-2.6c0-0.7,0.2-1.3,0.6-1.9s0.9-1,1.6-1.3c-0.6-0.3-1-0.7-1.3-1.2s-0.5-1.1-0.5-1.7
		c0-1.1,0.3-1.9,1-2.6s1.6-0.9,2.7-0.9c1.1,0,2,0.3,2.7,0.9S100.9,233.5,100.9,234.5z M99.6,240.5c0-0.7-0.2-1.3-0.7-1.7
		s-1-0.7-1.8-0.7s-1.3,0.2-1.8,0.7s-0.7,1-0.7,1.8s0.2,1.3,0.6,1.7s1,0.6,1.8,0.6c0.8,0,1.4-0.2,1.8-0.6S99.6,241.2,99.6,240.5z
		 M97.2,232.4c-0.6,0-1.2,0.2-1.6,0.6s-0.6,0.9-0.6,1.6c0,0.7,0.2,1.2,0.6,1.6s0.9,0.6,1.6,0.6s1.2-0.2,1.6-0.6s0.6-0.9,0.6-1.6
		s-0.2-1.2-0.6-1.6S97.8,232.4,97.2,232.4z"/>
	<path d="M109.5,238.4c-0.3,0.4-0.7,0.7-1.2,1s-1,0.4-1.6,0.4c-0.7,0-1.4-0.2-1.9-0.5s-1-0.9-1.3-1.5s-0.4-1.4-0.4-2.2
		c0-0.9,0.2-1.6,0.5-2.3s0.8-1.2,1.4-1.6s1.3-0.5,2.1-0.5c1.3,0,2.3,0.5,3,1.4s1.1,2.2,1.1,3.9v0.5c0,2.5-0.5,4.3-1.5,5.5
		s-2.5,1.7-4.5,1.8h-0.3v-1.4h0.3c1.3,0,2.4-0.4,3.1-1C109,240.9,109.4,239.8,109.5,238.4z M107,238.4c0.5,0,1-0.2,1.5-0.5
		s0.8-0.7,1-1.2V236c0-1.1-0.2-1.9-0.7-2.6s-1-1-1.8-1c-0.7,0-1.3,0.3-1.7,0.8s-0.7,1.3-0.7,2.2c0,0.9,0.2,1.6,0.6,2.2
		S106.3,238.4,107,238.4z"/>
</g>
<g>
	<path d="M60.8,274c0,1.9-0.3,3.3-1,4.2s-1.7,1.4-3,1.4c-1.4,0-2.4-0.5-3-1.4s-1-2.3-1-4.1v-2.2c0-1.9,0.3-3.3,1-4.2
		s1.7-1.4,3.1-1.4c1.4,0,2.4,0.4,3,1.3s1,2.2,1,4.1V274z M59.1,271.8c0-1.4-0.2-2.4-0.6-3s-1-0.9-1.8-0.9c-0.8,0-1.4,0.3-1.8,0.9
		s-0.6,1.6-0.6,2.9v2.6c0,1.4,0.2,2.4,0.6,3.1s1,1,1.8,1c0.8,0,1.4-0.3,1.8-0.9s0.6-1.6,0.6-2.9V271.8z"/>
	<path d="M70.6,270c0,0.6-0.2,1.2-0.5,1.7s-0.8,0.9-1.4,1.2c0.7,0.3,1.2,0.7,1.6,1.3s0.6,1.2,0.6,1.9c0,1.1-0.4,2-1.1,2.6
		s-1.7,1-2.9,1c-1.2,0-2.2-0.3-3-1s-1.1-1.5-1.1-2.6c0-0.7,0.2-1.3,0.6-1.9s0.9-1,1.6-1.3c-0.6-0.3-1-0.7-1.3-1.2s-0.5-1.1-0.5-1.7
		c0-1.1,0.3-1.9,1-2.6s1.6-0.9,2.7-0.9c1.1,0,2,0.3,2.7,0.9S70.6,269,70.6,270z M69.3,276c0-0.7-0.2-1.3-0.7-1.7s-1-0.7-1.8-0.7
		s-1.3,0.2-1.8,0.7s-0.7,1-0.7,1.8s0.2,1.3,0.6,1.7s1,0.6,1.8,0.6c0.8,0,1.4-0.2,1.8-0.6S69.3,276.7,69.3,276z M66.8,267.9
		c-0.6,0-1.2,0.2-1.6,0.6s-0.6,0.9-0.6,1.6c0,0.7,0.2,1.2,0.6,1.6s0.9,0.6,1.6,0.6s1.2-0.2,1.6-0.6s0.6-0.9,0.6-1.6
		s-0.2-1.2-0.6-1.6S67.4,267.9,66.8,267.9z"/>
	<path d="M75.3,272.3h1.2c0.8,0,1.4-0.2,1.8-0.6s0.7-0.9,0.7-1.6c0-1.5-0.7-2.3-2.2-2.3c-0.7,0-1.3,0.2-1.7,0.6s-0.6,0.9-0.6,1.6
		h-1.6c0-1,0.4-1.9,1.1-2.5s1.7-1,2.8-1c1.2,0,2.2,0.3,2.8,1s1,1.5,1,2.7c0,0.6-0.2,1.1-0.5,1.6s-0.9,0.9-1.5,1.2
		c0.7,0.2,1.2,0.6,1.6,1.1s0.6,1.1,0.6,1.9c0,1.1-0.4,2.1-1.1,2.7s-1.7,1-2.9,1s-2.2-0.3-2.9-1s-1.1-1.5-1.1-2.6h1.6
		c0,0.7,0.2,1.2,0.7,1.6s1,0.6,1.8,0.6c0.8,0,1.4-0.2,1.8-0.6s0.6-1,0.6-1.8c0-0.7-0.2-1.3-0.7-1.7s-1.1-0.6-2-0.6h-1.2V272.3z"/>
	<path d="M88.4,279.5h-1.6v-10.8l-3.3,1.2v-1.5l4.7-1.7h0.3V279.5z"/>
	<path d="M101.2,274c0,1.9-0.3,3.3-1,4.2s-1.7,1.4-3,1.4c-1.4,0-2.4-0.5-3-1.4s-1-2.3-1-4.1v-2.2c0-1.9,0.3-3.3,1-4.2
		s1.7-1.4,3.1-1.4c1.4,0,2.4,0.4,3,1.3s1,2.2,1,4.1V274z M99.6,271.8c0-1.4-0.2-2.4-0.6-3s-1-0.9-1.8-0.9c-0.8,0-1.4,0.3-1.8,0.9
		s-0.6,1.6-0.6,2.9v2.6c0,1.4,0.2,2.4,0.6,3.1s1,1,1.8,1c0.8,0,1.4-0.3,1.8-0.9s0.6-1.6,0.6-2.9V271.8z"/>
	<path d="M111.7,279.5h-8.4v-1.2l4.4-4.9c0.7-0.7,1.1-1.3,1.4-1.8s0.4-0.9,0.4-1.4c0-0.7-0.2-1.2-0.6-1.6s-0.9-0.6-1.6-0.6
		c-0.8,0-1.4,0.2-1.9,0.7s-0.7,1.1-0.7,1.9H103c0-1.2,0.4-2.1,1.1-2.9s1.8-1.1,3-1.1c1.2,0,2.1,0.3,2.8,0.9s1,1.5,1,2.5
		c0,1.3-0.8,2.8-2.4,4.5l-3.4,3.7h6.4V279.5z"/>
</g>
<g>
	<path d="M59,309.4c-0.3,0.4-0.7,0.7-1.2,1s-1,0.4-1.6,0.4c-0.7,0-1.4-0.2-1.9-0.5s-1-0.9-1.3-1.5s-0.4-1.4-0.4-2.2
		c0-0.9,0.2-1.6,0.5-2.3s0.8-1.2,1.4-1.6s1.3-0.5,2.1-0.5c1.3,0,2.3,0.5,3,1.4s1.1,2.2,1.1,3.9v0.5c0,2.5-0.5,4.3-1.5,5.5
		s-2.5,1.7-4.5,1.8h-0.3v-1.4h0.3c1.3,0,2.4-0.4,3.1-1C58.5,311.9,58.9,310.8,59,309.4z M56.5,309.4c0.5,0,1-0.2,1.5-0.5
		s0.8-0.7,1-1.2V307c0-1.1-0.2-1.9-0.7-2.6s-1-1-1.8-1c-0.7,0-1.3,0.3-1.7,0.8s-0.7,1.3-0.7,2.2c0,0.9,0.2,1.6,0.6,2.2
		S55.8,309.4,56.5,309.4z"/>
	<path d="M69.1,309.4c-0.3,0.4-0.7,0.7-1.2,1s-1,0.4-1.6,0.4c-0.7,0-1.4-0.2-1.9-0.5s-1-0.9-1.3-1.5s-0.4-1.4-0.4-2.2
		c0-0.9,0.2-1.6,0.5-2.3s0.8-1.2,1.4-1.6s1.3-0.5,2.1-0.5c1.3,0,2.3,0.5,3,1.4s1.1,2.2,1.1,3.9v0.5c0,2.5-0.5,4.3-1.5,5.5
		s-2.5,1.7-4.5,1.8h-0.3v-1.4h0.3c1.3,0,2.4-0.4,3.1-1C68.6,311.9,69,310.8,69.1,309.4z M66.6,309.4c0.5,0,1-0.2,1.5-0.5
		s0.8-0.7,1-1.2V307c0-1.1-0.2-1.9-0.7-2.6s-1-1-1.8-1c-0.7,0-1.3,0.3-1.7,0.8s-0.7,1.3-0.7,2.2c0,0.9,0.2,1.6,0.6,2.2
		S65.9,309.4,66.6,309.4z"/>
	<path d="M75.3,307.8h1.2c0.8,0,1.4-0.2,1.8-0.6s0.7-0.9,0.7-1.6c0-1.5-0.7-2.3-2.2-2.3c-0.7,0-1.3,0.2-1.7,0.6s-0.6,0.9-0.6,1.6
		h-1.6c0-1,0.4-1.9,1.1-2.5s1.7-1,2.8-1c1.2,0,2.2,0.3,2.8,1s1,1.5,1,2.7c0,0.6-0.2,1.1-0.5,1.6s-0.9,0.9-1.5,1.2
		c0.7,0.2,1.2,0.6,1.6,1.1s0.6,1.1,0.6,1.9c0,1.1-0.4,2.1-1.1,2.7s-1.7,1-2.9,1s-2.2-0.3-2.9-1s-1.1-1.5-1.1-2.6h1.6
		c0,0.7,0.2,1.2,0.7,1.6s1,0.6,1.8,0.6c0.8,0,1.4-0.2,1.8-0.6s0.6-1,0.6-1.8c0-0.7-0.2-1.3-0.7-1.7s-1.1-0.6-2-0.6h-1.2V307.8z"/>
	<path d="M91.4,315h-8.4v-1.2l4.4-4.9c0.7-0.7,1.1-1.3,1.4-1.8s0.4-0.9,0.4-1.4c0-0.7-0.2-1.2-0.6-1.6s-0.9-0.6-1.6-0.6
		c-0.8,0-1.4,0.2-1.9,0.7s-0.7,1.1-0.7,1.9h-1.6c0-1.2,0.4-2.1,1.1-2.9s1.8-1.1,3-1.1c1.2,0,2.1,0.3,2.8,0.9s1,1.5,1,2.5
		c0,1.3-0.8,2.8-2.4,4.5l-3.4,3.7h6.4V315z"/>
	<path d="M101.4,303.1L96.1,315h-1.7l5.3-11.5h-6.9v-1.3h8.6V303.1z"/>
	<path d="M111.3,309.5c0,1.9-0.3,3.3-1,4.2s-1.7,1.4-3,1.4c-1.4,0-2.4-0.5-3-1.4s-1-2.3-1-4.1v-2.2c0-1.9,0.3-3.3,1-4.2
		s1.7-1.4,3.1-1.4c1.4,0,2.4,0.4,3,1.3s1,2.2,1,4.1V309.5z M109.7,307.3c0-1.4-0.2-2.4-0.6-3s-1-0.9-1.8-0.9c-0.8,0-1.4,0.3-1.8,0.9
		s-0.6,1.6-0.6,2.9v2.6c0,1.4,0.2,2.4,0.6,3.1s1,1,1.8,1c0.8,0,1.4-0.3,1.8-0.9s0.6-1.6,0.6-2.9V307.3z"/>
</g>
<g>
	<path d="M58.1,350.5h-1.6v-10.8l-3.3,1.2v-1.5l4.7-1.7h0.3V350.5z"/>
	<path d="M70.6,341c0,0.6-0.2,1.2-0.5,1.7s-0.8,0.9-1.4,1.2c0.7,0.3,1.2,0.7,1.6,1.3s0.6,1.2,0.6,1.9c0,1.1-0.4,2-1.1,2.6
		s-1.7,1-2.9,1c-1.2,0-2.2-0.3-3-1s-1.1-1.5-1.1-2.6c0-0.7,0.2-1.3,0.6-1.9s0.9-1,1.6-1.3c-0.6-0.3-1-0.7-1.3-1.2s-0.5-1.1-0.5-1.7
		c0-1.1,0.3-1.9,1-2.6s1.6-0.9,2.7-0.9c1.1,0,2,0.3,2.7,0.9S70.6,340,70.6,341z M69.3,347c0-0.7-0.2-1.3-0.7-1.7s-1-0.7-1.8-0.7
		s-1.3,0.2-1.8,0.7s-0.7,1-0.7,1.8s0.2,1.3,0.6,1.7s1,0.6,1.8,0.6c0.8,0,1.4-0.2,1.8-0.6S69.3,347.7,69.3,347z M66.8,338.9
		c-0.6,0-1.2,0.2-1.6,0.6s-0.6,0.9-0.6,1.6c0,0.7,0.2,1.2,0.6,1.6s0.9,0.6,1.6,0.6s1.2-0.2,1.6-0.6s0.6-0.9,0.6-1.6
		s-0.2-1.2-0.6-1.6S67.4,338.9,66.8,338.9z"/>
	<path d="M81.2,338.6l-5.3,11.9h-1.7l5.3-11.5h-6.9v-1.3h8.6V338.6z"/>
	<path d="M91.3,338.6L86,350.5h-1.7l5.3-11.5h-6.9v-1.3h8.6V338.6z"/>
	<path d="M99.5,337.7v1.4h-0.3c-1.3,0-2.3,0.4-3,1.1s-1.2,1.7-1.3,3.1c0.7-0.8,1.6-1.2,2.8-1.2c1.1,0,2,0.4,2.7,1.2s1,1.8,1,3
		c0,1.3-0.4,2.4-1.1,3.2s-1.7,1.2-2.9,1.2c-1.2,0-2.2-0.5-3-1.4s-1.1-2.2-1.1-3.6V345c0-2.4,0.5-4.2,1.5-5.4s2.5-1.9,4.5-1.9H99.5z
		 M97.4,343.5c-0.6,0-1.1,0.2-1.5,0.5s-0.8,0.8-1,1.3v0.6c0,1.1,0.2,1.9,0.7,2.5s1.1,1,1.8,1c0.7,0,1.3-0.3,1.7-0.8s0.6-1.2,0.6-2.1
		c0-0.9-0.2-1.6-0.6-2.1S98.1,343.5,97.4,343.5z"/>
	<path d="M109.5,344.9c-0.3,0.4-0.7,0.7-1.2,1s-1,0.4-1.6,0.4c-0.7,0-1.4-0.2-1.9-0.5s-1-0.9-1.3-1.5s-0.4-1.4-0.4-2.2
		c0-0.9,0.2-1.6,0.5-2.3s0.8-1.2,1.4-1.6s1.3-0.5,2.1-0.5c1.3,0,2.3,0.5,3,1.4s1.1,2.2,1.1,3.9v0.5c0,2.5-0.5,4.3-1.5,5.5
		s-2.5,1.7-4.5,1.8h-0.3v-1.4h0.3c1.3,0,2.4-0.4,3.1-1C109,347.4,109.4,346.3,109.5,344.9z M107,344.9c0.5,0,1-0.2,1.5-0.5
		s0.8-0.7,1-1.2v-0.7c0-1.1-0.2-1.9-0.7-2.6s-1-1-1.8-1c-0.7,0-1.3,0.3-1.7,0.8s-0.7,1.3-0.7,2.2c0,0.9,0.2,1.6,0.6,2.2
		S106.3,344.9,107,344.9z"/>
</g>
<g>
	<path d="M55.1,378.8h1.2c0.8,0,1.4-0.2,1.8-0.6s0.7-0.9,0.7-1.6c0-1.5-0.7-2.3-2.2-2.3c-0.7,0-1.3,0.2-1.7,0.6s-0.6,0.9-0.6,1.6
		h-1.6c0-1,0.4-1.9,1.1-2.5s1.7-1,2.8-1c1.2,0,2.2,0.3,2.8,1s1,1.5,1,2.7c0,0.6-0.2,1.1-0.5,1.6s-0.9,0.9-1.5,1.2
		c0.7,0.2,1.2,0.6,1.6,1.1s0.6,1.1,0.6,1.9c0,1.1-0.4,2.1-1.1,2.7s-1.7,1-2.9,1s-2.2-0.3-2.9-1s-1.1-1.5-1.1-2.6h1.6
		c0,0.7,0.2,1.2,0.7,1.6s1,0.6,1.8,0.6c0.8,0,1.4-0.2,1.8-0.6s0.6-1,0.6-1.8c0-0.7-0.2-1.3-0.7-1.7s-1.1-0.6-2-0.6h-1.2V378.8z"/>
	<path d="M71.1,374.1L65.8,386h-1.7l5.3-11.5h-6.9v-1.3h8.6V374.1z"/>
	<path d="M75.3,378.8h1.2c0.8,0,1.4-0.2,1.8-0.6s0.7-0.9,0.7-1.6c0-1.5-0.7-2.3-2.2-2.3c-0.7,0-1.3,0.2-1.7,0.6s-0.6,0.9-0.6,1.6
		h-1.6c0-1,0.4-1.9,1.1-2.5s1.7-1,2.8-1c1.2,0,2.2,0.3,2.8,1s1,1.5,1,2.7c0,0.6-0.2,1.1-0.5,1.6s-0.9,0.9-1.5,1.2
		c0.7,0.2,1.2,0.6,1.6,1.1s0.6,1.1,0.6,1.9c0,1.1-0.4,2.1-1.1,2.7s-1.7,1-2.9,1s-2.2-0.3-2.9-1s-1.1-1.5-1.1-2.6h1.6
		c0,0.7,0.2,1.2,0.7,1.6s1,0.6,1.8,0.6c0.8,0,1.4-0.2,1.8-0.6s0.6-1,0.6-1.8c0-0.7-0.2-1.3-0.7-1.7s-1.1-0.6-2-0.6h-1.2V378.8z"/>
	<path d="M91.1,380.5c0,1.9-0.3,3.3-1,4.2s-1.7,1.4-3,1.4c-1.4,0-2.4-0.5-3-1.4s-1-2.3-1-4.1v-2.2c0-1.9,0.3-3.3,1-4.2
		s1.7-1.4,3.1-1.4c1.4,0,2.4,0.4,3,1.3s1,2.2,1,4.1V380.5z M89.5,378.3c0-1.4-0.2-2.4-0.6-3s-1-0.9-1.8-0.9c-0.8,0-1.4,0.3-1.8,0.9
		s-0.6,1.6-0.6,2.9v2.6c0,1.4,0.2,2.4,0.6,3.1s1,1,1.8,1c0.8,0,1.4-0.3,1.8-0.9s0.6-1.6,0.6-2.9V378.3z"/>
	<path d="M100,381.7h1.8v1.3H100v3h-1.6v-3h-5.8v-1l5.7-8.9h1.7V381.7z M94.4,381.7h4v-6.3l-0.2,0.4L94.4,381.7z"/>
	<path d="M111.7,386h-8.4v-1.2l4.4-4.9c0.7-0.7,1.1-1.3,1.4-1.8s0.4-0.9,0.4-1.4c0-0.7-0.2-1.2-0.6-1.6s-0.9-0.6-1.6-0.6
		c-0.8,0-1.4,0.2-1.9,0.7s-0.7,1.1-0.7,1.9H103c0-1.2,0.4-2.1,1.1-2.9s1.8-1.1,3-1.1c1.2,0,2.1,0.3,2.8,0.9s1,1.5,1,2.5
		c0,1.3-0.8,2.8-2.4,4.5l-3.4,3.7h6.4V386z"/>
</g>
<g>
	<path d="M60.8,416c0,1.9-0.3,3.3-1,4.2s-1.7,1.4-3,1.4c-1.4,0-2.4-0.5-3-1.4c-0.7-0.9-1-2.3-1-4.1v-2.2c0-1.9,0.3-3.3,1-4.2
		s1.7-1.4,3.1-1.4c1.4,0,2.4,0.4,3,1.3s1,2.2,1,4.1V416z M59.1,413.8c0-1.4-0.2-2.4-0.6-3c-0.4-0.6-1-0.9-1.8-0.9
		c-0.8,0-1.4,0.3-1.8,0.9s-0.6,1.6-0.6,2.9v2.6c0,1.4,0.2,2.4,0.6,3.1c0.4,0.7,1,1,1.8,1c0.8,0,1.4-0.3,1.8-0.9s0.6-1.6,0.6-2.9
		V413.8z"/>
	<path d="M63.6,415.1l0.7-6.4h6.6v1.5h-5.2l-0.4,3.5c0.6-0.4,1.3-0.6,2.1-0.6c1.2,0,2.1,0.4,2.8,1.2c0.7,0.8,1,1.8,1,3.1
		c0,1.3-0.4,2.4-1.1,3.1c-0.7,0.8-1.7,1.1-3,1.1c-1.1,0-2.1-0.3-2.8-0.9s-1.1-1.5-1.2-2.6h1.5c0.1,0.7,0.4,1.3,0.8,1.7
		c0.4,0.4,1,0.6,1.7,0.6c0.8,0,1.3-0.3,1.8-0.8s0.6-1.2,0.6-2.1c0-0.9-0.2-1.5-0.7-2.1c-0.5-0.5-1.1-0.8-1.9-0.8
		c-0.7,0-1.3,0.2-1.7,0.5l-0.4,0.4L63.6,415.1z"/>
	<path d="M79.3,408.7v1.4H79c-1.3,0-2.3,0.4-3,1.1s-1.2,1.7-1.3,3.1c0.7-0.8,1.6-1.2,2.8-1.2c1.1,0,2,0.4,2.7,1.2s1,1.8,1,3
		c0,1.3-0.4,2.4-1.1,3.2s-1.7,1.2-2.9,1.2c-1.2,0-2.2-0.5-3-1.4c-0.8-0.9-1.1-2.2-1.1-3.6V416c0-2.4,0.5-4.2,1.5-5.4
		c1-1.2,2.5-1.9,4.5-1.9H79.3z M77.2,414.5c-0.6,0-1.1,0.2-1.5,0.5s-0.8,0.8-1,1.3v0.6c0,1.1,0.2,1.9,0.7,2.5s1.1,1,1.8,1
		c0.7,0,1.3-0.3,1.7-0.8s0.6-1.2,0.6-2.1c0-0.9-0.2-1.6-0.6-2.1C78.5,414.7,77.9,414.5,77.2,414.5z"/>
	<path d="M90.8,412c0,0.6-0.2,1.2-0.5,1.7s-0.8,0.9-1.4,1.2c0.7,0.3,1.2,0.7,1.6,1.3s0.6,1.2,0.6,1.9c0,1.1-0.4,2-1.1,2.6
		s-1.7,1-2.9,1c-1.2,0-2.2-0.3-3-1c-0.7-0.7-1.1-1.5-1.1-2.6c0-0.7,0.2-1.3,0.6-1.9s0.9-1,1.6-1.3c-0.6-0.3-1-0.7-1.3-1.2
		s-0.5-1.1-0.5-1.7c0-1.1,0.3-1.9,1-2.6s1.6-0.9,2.7-0.9c1.1,0,2,0.3,2.7,0.9S90.8,411,90.8,412z M89.5,418c0-0.7-0.2-1.3-0.7-1.7
		s-1-0.7-1.8-0.7s-1.3,0.2-1.8,0.7s-0.7,1-0.7,1.8s0.2,1.3,0.6,1.7s1,0.6,1.8,0.6c0.8,0,1.4-0.2,1.8-0.6
		C89.3,419.3,89.5,418.7,89.5,418z M87,409.9c-0.6,0-1.2,0.2-1.6,0.6s-0.6,0.9-0.6,1.6c0,0.7,0.2,1.2,0.6,1.6
		c0.4,0.4,0.9,0.6,1.6,0.6s1.2-0.2,1.6-0.6c0.4-0.4,0.6-0.9,0.6-1.6s-0.2-1.2-0.6-1.6S87.7,409.9,87,409.9z"/>
	<path d="M95.5,414.3h1.2c0.8,0,1.4-0.2,1.8-0.6s0.7-0.9,0.7-1.6c0-1.5-0.7-2.3-2.2-2.3c-0.7,0-1.3,0.2-1.7,0.6s-0.6,0.9-0.6,1.6H93
		c0-1,0.4-1.9,1.1-2.5s1.7-1,2.8-1c1.2,0,2.2,0.3,2.8,1s1,1.5,1,2.7c0,0.6-0.2,1.1-0.5,1.6s-0.9,0.9-1.5,1.2
		c0.7,0.2,1.2,0.6,1.6,1.1s0.6,1.1,0.6,1.9c0,1.1-0.4,2.1-1.1,2.7s-1.7,1-2.9,1s-2.2-0.3-2.9-1s-1.1-1.5-1.1-2.6h1.6
		c0,0.7,0.2,1.2,0.7,1.6s1,0.6,1.8,0.6c0.8,0,1.4-0.2,1.8-0.6s0.6-1,0.6-1.8c0-0.7-0.2-1.3-0.7-1.7s-1.1-0.6-2-0.6h-1.2V414.3z"/>
	<path d="M105.6,414.3h1.2c0.8,0,1.4-0.2,1.8-0.6s0.7-0.9,0.7-1.6c0-1.5-0.7-2.3-2.2-2.3c-0.7,0-1.3,0.2-1.7,0.6s-0.6,0.9-0.6,1.6
		h-1.6c0-1,0.4-1.9,1.1-2.5s1.7-1,2.8-1c1.2,0,2.2,0.3,2.8,1s1,1.5,1,2.7c0,0.6-0.2,1.1-0.5,1.6s-0.9,0.9-1.5,1.2
		c0.7,0.2,1.2,0.6,1.6,1.1s0.6,1.1,0.6,1.9c0,1.1-0.4,2.1-1.1,2.7s-1.7,1-2.9,1s-2.2-0.3-2.9-1s-1.1-1.5-1.1-2.6h1.6
		c0,0.7,0.2,1.2,0.7,1.6s1,0.6,1.8,0.6c0.8,0,1.4-0.2,1.8-0.6s0.6-1,0.6-1.8c0-0.7-0.2-1.3-0.7-1.7s-1.1-0.6-2-0.6h-1.2V414.3z"/>
</g>
<g>
	<path d="M61.1,457h-8.4v-1.2l4.4-4.9c0.7-0.7,1.1-1.3,1.4-1.8c0.2-0.5,0.4-0.9,0.4-1.4c0-0.7-0.2-1.2-0.6-1.6s-0.9-0.6-1.6-0.6
		c-0.8,0-1.4,0.2-1.9,0.7c-0.4,0.5-0.7,1.1-0.7,1.9h-1.6c0-1.2,0.4-2.1,1.1-2.9s1.8-1.1,3-1.1c1.2,0,2.1,0.3,2.8,0.9
		c0.7,0.6,1,1.5,1,2.5c0,1.3-0.8,2.8-2.4,4.5l-3.4,3.7h6.4V457z"/>
	<path d="M63.6,450.6l0.7-6.4h6.6v1.5h-5.2l-0.4,3.5c0.6-0.4,1.3-0.6,2.1-0.6c1.2,0,2.1,0.4,2.8,1.2c0.7,0.8,1,1.8,1,3.1
		c0,1.3-0.4,2.4-1.1,3.1c-0.7,0.8-1.7,1.1-3,1.1c-1.1,0-2.1-0.3-2.8-0.9s-1.1-1.5-1.2-2.6h1.5c0.1,0.7,0.4,1.3,0.8,1.7
		c0.4,0.4,1,0.6,1.7,0.6c0.8,0,1.3-0.3,1.8-0.8s0.6-1.2,0.6-2.1c0-0.9-0.2-1.5-0.7-2.1c-0.5-0.5-1.1-0.8-1.9-0.8
		c-0.7,0-1.3,0.2-1.7,0.5l-0.4,0.4L63.6,450.6z"/>
	<path d="M81,451.5c0,1.9-0.3,3.3-1,4.2s-1.7,1.4-3,1.4c-1.4,0-2.4-0.5-3-1.4c-0.7-0.9-1-2.3-1-4.1v-2.2c0-1.9,0.3-3.3,1-4.2
		s1.7-1.4,3.1-1.4c1.4,0,2.4,0.4,3,1.3c0.7,0.9,1,2.2,1,4.1V451.5z M79.3,449.3c0-1.4-0.2-2.4-0.6-3c-0.4-0.6-1-0.9-1.8-0.9
		c-0.8,0-1.4,0.3-1.8,0.9s-0.6,1.6-0.6,2.9v2.6c0,1.4,0.2,2.4,0.6,3.1c0.4,0.7,1,1,1.8,1c0.8,0,1.4-0.3,1.8-0.9s0.6-1.6,0.6-2.9
		V449.3z"/>
	<path d="M88.4,457h-1.6v-10.8l-3.3,1.2v-1.5l4.7-1.7h0.3V457z"/>
	<path d="M99.5,444.2v1.4h-0.3c-1.3,0-2.3,0.4-3,1.1s-1.2,1.7-1.3,3.1c0.7-0.8,1.6-1.2,2.8-1.2c1.1,0,2,0.4,2.7,1.2s1,1.8,1,3
		c0,1.3-0.4,2.4-1.1,3.2s-1.7,1.2-2.9,1.2c-1.2,0-2.2-0.5-3-1.4c-0.8-0.9-1.1-2.2-1.1-3.6v-0.6c0-2.4,0.5-4.2,1.5-5.4
		c1-1.2,2.5-1.9,4.5-1.9H99.5z M97.4,450c-0.6,0-1.1,0.2-1.5,0.5s-0.8,0.8-1,1.3v0.6c0,1.1,0.2,1.9,0.7,2.5s1.1,1,1.8,1
		c0.7,0,1.3-0.3,1.7-0.8s0.6-1.2,0.6-2.1c0-0.9-0.2-1.6-0.6-2.1C98.7,450.2,98.1,450,97.4,450z"/>
	<path d="M109.5,451.4c-0.3,0.4-0.7,0.7-1.2,1s-1,0.4-1.6,0.4c-0.7,0-1.4-0.2-1.9-0.5s-1-0.9-1.3-1.5c-0.3-0.7-0.4-1.4-0.4-2.2
		c0-0.9,0.2-1.6,0.5-2.3s0.8-1.2,1.4-1.6s1.3-0.5,2.1-0.5c1.3,0,2.3,0.5,3,1.4c0.7,0.9,1.1,2.2,1.1,3.9v0.5c0,2.5-0.5,4.3-1.5,5.5
		c-1,1.1-2.5,1.7-4.5,1.8h-0.3v-1.4h0.3c1.3,0,2.4-0.4,3.1-1C109,453.9,109.4,452.8,109.5,451.4z M107,451.4c0.5,0,1-0.2,1.5-0.5
		s0.8-0.7,1-1.2V449c0-1.1-0.2-1.9-0.7-2.6s-1-1-1.8-1c-0.7,0-1.3,0.3-1.7,0.8c-0.4,0.5-0.7,1.3-0.7,2.2c0,0.9,0.2,1.6,0.6,2.2
		C105.7,451.1,106.3,451.4,107,451.4z"/>
</g>
<g>
	<path d="M59,487.5c-0.3,0.4-0.7,0.7-1.2,1s-1,0.4-1.6,0.4c-0.7,0-1.4-0.2-1.9-0.5s-1-0.9-1.3-1.5s-0.4-1.4-0.4-2.2
		c0-0.9,0.2-1.6,0.5-2.3s0.8-1.2,1.4-1.6s1.3-0.5,2.1-0.5c1.3,0,2.3,0.5,3,1.4s1.1,2.2,1.1,3.9v0.5c0,2.5-0.5,4.3-1.5,5.5
		s-2.5,1.7-4.5,1.8h-0.3v-1.4h0.3c1.3,0,2.4-0.4,3.1-1C58.5,490.1,58.9,489,59,487.5z M56.5,487.5c0.5,0,1-0.2,1.5-0.5
		s0.8-0.7,1-1.2v-0.7c0-1.1-0.2-1.9-0.7-2.6s-1-1-1.8-1c-0.7,0-1.3,0.3-1.7,0.8s-0.7,1.3-0.7,2.2c0,0.9,0.2,1.6,0.6,2.2
		S55.8,487.5,56.5,487.5z"/>
	<path d="M70.9,487.7c0,1.9-0.3,3.3-1,4.2s-1.7,1.4-3,1.4c-1.4,0-2.4-0.5-3-1.4s-1-2.3-1-4.1v-2.2c0-1.9,0.3-3.3,1-4.2
		s1.7-1.4,3.1-1.4c1.4,0,2.4,0.4,3,1.3s1,2.2,1,4.1V487.7z M69.2,485.5c0-1.4-0.2-2.4-0.6-3s-1-0.9-1.8-0.9c-0.8,0-1.4,0.3-1.8,0.9
		s-0.6,1.6-0.6,2.9v2.6c0,1.4,0.2,2.4,0.6,3.1s1,1,1.8,1c0.8,0,1.4-0.3,1.8-0.9s0.6-1.6,0.6-2.9V485.5z"/>
	<path d="M81.2,481.3l-5.3,11.9h-1.7l5.3-11.5h-6.9v-1.3h8.6V481.3z"/>
	<path d="M83.8,486.8l0.7-6.4H91v1.5h-5.2l-0.4,3.5c0.6-0.4,1.3-0.6,2.1-0.6c1.2,0,2.1,0.4,2.8,1.2s1,1.8,1,3.1
		c0,1.3-0.4,2.4-1.1,3.1s-1.7,1.1-3,1.1c-1.1,0-2.1-0.3-2.8-0.9s-1.1-1.5-1.2-2.6h1.5c0.1,0.7,0.4,1.3,0.8,1.7s1,0.6,1.7,0.6
		c0.8,0,1.3-0.3,1.8-0.8s0.6-1.2,0.6-2.1c0-0.9-0.2-1.5-0.7-2.1s-1.1-0.8-1.9-0.8c-0.7,0-1.3,0.2-1.7,0.5l-0.4,0.4L83.8,486.8z"/>
	<path d="M100.9,483.7c0,0.6-0.2,1.2-0.5,1.7s-0.8,0.9-1.4,1.2c0.7,0.3,1.2,0.7,1.6,1.3s0.6,1.2,0.6,1.9c0,1.1-0.4,2-1.1,2.6
		s-1.7,1-2.9,1c-1.2,0-2.2-0.3-3-1s-1.1-1.5-1.1-2.6c0-0.7,0.2-1.3,0.6-1.9s0.9-1,1.6-1.3c-0.6-0.3-1-0.7-1.3-1.2s-0.5-1.1-0.5-1.7
		c0-1.1,0.3-1.9,1-2.6s1.6-0.9,2.7-0.9c1.1,0,2,0.3,2.7,0.9S100.9,482.6,100.9,483.7z M99.6,489.7c0-0.7-0.2-1.3-0.7-1.7
		s-1-0.7-1.8-0.7s-1.3,0.2-1.8,0.7s-0.7,1-0.7,1.8s0.2,1.3,0.6,1.7s1,0.6,1.8,0.6c0.8,0,1.4-0.2,1.8-0.6S99.6,490.4,99.6,489.7z
		 M97.2,481.5c-0.6,0-1.2,0.2-1.6,0.6s-0.6,0.9-0.6,1.6c0,0.7,0.2,1.2,0.6,1.6s0.9,0.6,1.6,0.6s1.2-0.2,1.6-0.6s0.6-0.9,0.6-1.6
		s-0.2-1.2-0.6-1.6S97.8,481.5,97.2,481.5z"/>
	<path d="M105.6,486h1.2c0.8,0,1.4-0.2,1.8-0.6s0.7-0.9,0.7-1.6c0-1.5-0.7-2.3-2.2-2.3c-0.7,0-1.3,0.2-1.7,0.6s-0.6,0.9-0.6,1.6
		h-1.6c0-1,0.4-1.9,1.1-2.5s1.7-1,2.8-1c1.2,0,2.2,0.3,2.8,1s1,1.5,1,2.7c0,0.6-0.2,1.1-0.5,1.6s-0.9,0.9-1.5,1.2
		c0.7,0.2,1.2,0.6,1.6,1.1s0.6,1.1,0.6,1.9c0,1.1-0.4,2.1-1.1,2.7s-1.7,1-2.9,1s-2.2-0.3-2.9-1s-1.1-1.5-1.1-2.6h1.6
		c0,0.7,0.2,1.2,0.7,1.6s1,0.6,1.8,0.6c0.8,0,1.4-0.2,1.8-0.6s0.6-1,0.6-1.8c0-0.7-0.2-1.3-0.7-1.7s-1.1-0.6-2-0.6h-1.2V486z"/>
</g>
<g>
	<path d="M59,523c-0.3,0.4-0.7,0.7-1.2,1s-1,0.4-1.6,0.4c-0.7,0-1.4-0.2-1.9-0.5s-1-0.9-1.3-1.5s-0.4-1.4-0.4-2.2
		c0-0.9,0.2-1.6,0.5-2.3s0.8-1.2,1.4-1.6s1.3-0.5,2.1-0.5c1.3,0,2.3,0.5,3,1.4s1.1,2.2,1.1,3.9v0.5c0,2.5-0.5,4.3-1.5,5.5
		s-2.5,1.7-4.5,1.8h-0.3v-1.4h0.3c1.3,0,2.4-0.4,3.1-1C58.5,525.6,58.9,524.5,59,523z M56.5,523c0.5,0,1-0.2,1.5-0.5s0.8-0.7,1-1.2
		v-0.7c0-1.1-0.2-1.9-0.7-2.6s-1-1-1.8-1c-0.7,0-1.3,0.3-1.7,0.8s-0.7,1.3-0.7,2.2c0,0.9,0.2,1.6,0.6,2.2S55.8,523,56.5,523z"/>
	<path d="M70.6,519.2c0,0.6-0.2,1.2-0.5,1.7s-0.8,0.9-1.4,1.2c0.7,0.3,1.2,0.7,1.6,1.3s0.6,1.2,0.6,1.9c0,1.1-0.4,2-1.1,2.6
		s-1.7,1-2.9,1c-1.2,0-2.2-0.3-3-1s-1.1-1.5-1.1-2.6c0-0.7,0.2-1.3,0.6-1.9s0.9-1,1.6-1.3c-0.6-0.3-1-0.7-1.3-1.2s-0.5-1.1-0.5-1.7
		c0-1.1,0.3-1.9,1-2.6s1.6-0.9,2.7-0.9c1.1,0,2,0.3,2.7,0.9S70.6,518.1,70.6,519.2z M69.3,525.2c0-0.7-0.2-1.3-0.7-1.7
		s-1-0.7-1.8-0.7s-1.3,0.2-1.8,0.7s-0.7,1-0.7,1.8s0.2,1.3,0.6,1.7s1,0.6,1.8,0.6c0.8,0,1.4-0.2,1.8-0.6S69.3,525.9,69.3,525.2z
		 M66.8,517c-0.6,0-1.2,0.2-1.6,0.6s-0.6,0.9-0.6,1.6c0,0.7,0.2,1.2,0.6,1.6s0.9,0.6,1.6,0.6s1.2-0.2,1.6-0.6s0.6-0.9,0.6-1.6
		s-0.2-1.2-0.6-1.6S67.4,517,66.8,517z"/>
	<path d="M81.2,516.8l-5.3,11.9h-1.7l5.3-11.5h-6.9v-1.3h8.6V516.8z"/>
	<path d="M91.4,528.7h-8.4v-1.2l4.4-4.9c0.7-0.7,1.1-1.3,1.4-1.8s0.4-0.9,0.4-1.4c0-0.7-0.2-1.2-0.6-1.6S87.7,517,87,517
		c-0.8,0-1.4,0.2-1.9,0.7s-0.7,1.1-0.7,1.9h-1.6c0-1.2,0.4-2.1,1.1-2.9s1.8-1.1,3-1.1c1.2,0,2.1,0.3,2.8,0.9s1,1.5,1,2.5
		c0,1.3-0.8,2.8-2.4,4.5l-3.4,3.7h6.4V528.7z"/>
	<path d="M100,524.4h1.8v1.3H100v3h-1.6v-3h-5.8v-1l5.7-8.9h1.7V524.4z M94.4,524.4h4v-6.3l-0.2,0.4L94.4,524.4z"/>
	<path d="M111.7,528.7h-8.4v-1.2l4.4-4.9c0.7-0.7,1.1-1.3,1.4-1.8s0.4-0.9,0.4-1.4c0-0.7-0.2-1.2-0.6-1.6s-0.9-0.6-1.6-0.6
		c-0.8,0-1.4,0.2-1.9,0.7s-0.7,1.1-0.7,1.9H103c0-1.2,0.4-2.1,1.1-2.9s1.8-1.1,3-1.1c1.2,0,2.1,0.3,2.8,0.9s1,1.5,1,2.5
		c0,1.3-0.8,2.8-2.4,4.5l-3.4,3.7h6.4V528.7z"/>
</g>
<g>
	<path d="M31.2,641.5v5h-1.7v-12.8h4.7c1.4,0,2.5,0.4,3.3,1.1s1.2,1.7,1.2,2.8c0,1.2-0.4,2.2-1.2,2.9s-1.9,1-3.3,1H31.2z
		 M31.2,640.1h3c0.9,0,1.6-0.2,2.1-0.6c0.5-0.4,0.7-1,0.7-1.8c0-0.8-0.2-1.4-0.7-1.8s-1.1-0.7-2-0.7h-3.1V640.1z"/>
	<path d="M46.7,643.2h-5.4l-1.2,3.3h-1.7l4.9-12.8h1.5l4.9,12.8h-1.7L46.7,643.2z M41.8,641.8h4.4l-2.2-6L41.8,641.8z"/>
	<path d="M54.4,640.1l3.3-6.4h1.9l-4.4,8v4.8h-1.7v-4.8l-4.4-8h1.9L54.4,640.1z"/>
	<path d="M63.5,633.7l4.2,10.4l4.2-10.4h2.2v12.8h-1.7v-5l0.2-5.4l-4.2,10.4h-1.3l-4.2-10.3l0.2,5.4v5h-1.7v-12.8H63.5z"/>
	<path d="M84.3,640.6h-5.5v4.5h6.4v1.4h-8.1v-12.8h8v1.4h-6.4v4.1h5.5V640.6z"/>
	<path d="M97.1,646.5h-1.7l-6.4-9.9v9.9h-1.7v-12.8H89l6.5,9.9v-9.9h1.7V646.5z"/>
	<path d="M108.7,635.1h-4.1v11.4h-1.7v-11.4h-4.1v-1.4h9.9V635.1z"/>
	<path d="M118.5,640.8c-1.4-0.4-2.5-0.9-3.2-1.5c-0.7-0.6-1-1.4-1-2.2c0-1,0.4-1.8,1.2-2.5c0.8-0.7,1.9-1,3.1-1
		c0.9,0,1.7,0.2,2.4,0.5s1.2,0.8,1.6,1.4s0.6,1.3,0.6,2h-1.7c0-0.8-0.2-1.4-0.7-1.8s-1.2-0.7-2.1-0.7c-0.8,0-1.5,0.2-1.9,0.6
		c-0.5,0.4-0.7,0.9-0.7,1.5c0,0.5,0.2,1,0.7,1.3s1.2,0.7,2.3,1c1.1,0.3,1.9,0.6,2.5,1c0.6,0.4,1,0.8,1.3,1.3s0.4,1,0.4,1.7
		c0,1-0.4,1.9-1.2,2.5c-0.8,0.6-1.9,0.9-3.2,0.9c-0.9,0-1.7-0.2-2.5-0.5c-0.8-0.3-1.3-0.8-1.8-1.4s-0.6-1.3-0.6-2h1.7
		c0,0.8,0.3,1.4,0.9,1.8c0.6,0.4,1.3,0.7,2.3,0.7c0.9,0,1.6-0.2,2-0.5s0.7-0.9,0.7-1.5s-0.2-1.1-0.7-1.5
		C120.4,641.5,119.6,641.1,118.5,640.8z"/>
	<path d="M134.4,633.7v8.7c0,1.2-0.4,2.2-1.1,3s-1.8,1.2-3.1,1.3l-0.4,0c-1.4,0-2.5-0.4-3.3-1.1s-1.3-1.8-1.3-3.1v-8.7h1.7v8.7
		c0,0.9,0.3,1.6,0.8,2.2s1.2,0.8,2.2,0.8c1,0,1.7-0.3,2.2-0.8s0.8-1.2,0.8-2.2v-8.7H134.4z"/>
	<path d="M146.5,642.4c-0.2,1.4-0.7,2.4-1.5,3.1c-0.8,0.7-2,1.1-3.4,1.1c-1.5,0-2.7-0.5-3.6-1.6s-1.4-2.5-1.4-4.4v-1.2
		c0-1.2,0.2-2.2,0.6-3.1s1-1.6,1.8-2.1c0.8-0.5,1.7-0.7,2.7-0.7c1.4,0,2.4,0.4,3.3,1.1s1.3,1.8,1.4,3.2h-1.7c-0.1-1-0.5-1.8-1-2.2
		c-0.5-0.5-1.2-0.7-2.1-0.7c-1.1,0-1.9,0.4-2.5,1.2s-0.9,1.9-0.9,3.4v1.2c0,1.4,0.3,2.5,0.9,3.3s1.4,1.2,2.4,1.2
		c0.9,0,1.7-0.2,2.2-0.6c0.5-0.4,0.8-1.2,1-2.2H146.5z"/>
	<path d="M158.2,642.4c-0.2,1.4-0.7,2.4-1.5,3.1c-0.8,0.7-2,1.1-3.4,1.1c-1.5,0-2.7-0.5-3.6-1.6s-1.4-2.5-1.4-4.4v-1.2
		c0-1.2,0.2-2.2,0.6-3.1s1-1.6,1.8-2.1c0.8-0.5,1.7-0.7,2.7-0.7c1.4,0,2.4,0.4,3.3,1.1s1.3,1.8,1.4,3.2h-1.7c-0.1-1-0.5-1.8-1-2.2
		c-0.5-0.5-1.2-0.7-2.1-0.7c-1.1,0-1.9,0.4-2.5,1.2s-0.9,1.9-0.9,3.4v1.2c0,1.4,0.3,2.5,0.9,3.3s1.4,1.2,2.4,1.2
		c0.9,0,1.7-0.2,2.2-0.6c0.5-0.4,0.8-1.2,1-2.2H158.2z"/>
	<path d="M167.7,640.6h-5.5v4.5h6.4v1.4h-8.1v-12.8h8v1.4h-6.4v4.1h5.5V640.6z"/>
	<path d="M174.5,640.8c-1.4-0.4-2.5-0.9-3.2-1.5c-0.7-0.6-1-1.4-1-2.2c0-1,0.4-1.8,1.2-2.5c0.8-0.7,1.9-1,3.1-1
		c0.9,0,1.7,0.2,2.4,0.5s1.2,0.8,1.6,1.4s0.6,1.3,0.6,2h-1.7c0-0.8-0.2-1.4-0.7-1.8s-1.2-0.7-2.1-0.7c-0.8,0-1.5,0.2-1.9,0.6
		c-0.5,0.4-0.7,0.9-0.7,1.5c0,0.5,0.2,1,0.7,1.3s1.2,0.7,2.3,1c1.1,0.3,1.9,0.6,2.5,1c0.6,0.4,1,0.8,1.3,1.3s0.4,1,0.4,1.7
		c0,1-0.4,1.9-1.2,2.5c-0.8,0.6-1.9,0.9-3.2,0.9c-0.9,0-1.7-0.2-2.5-0.5c-0.8-0.3-1.3-0.8-1.8-1.4s-0.6-1.3-0.6-2h1.7
		c0,0.8,0.3,1.4,0.9,1.8c0.6,0.4,1.3,0.7,2.3,0.7c0.9,0,1.6-0.2,2-0.5s0.7-0.9,0.7-1.5s-0.2-1.1-0.7-1.5
		C176.5,641.5,175.7,641.1,174.5,640.8z"/>
	<path d="M185.2,640.8c-1.4-0.4-2.5-0.9-3.2-1.5c-0.7-0.6-1-1.4-1-2.2c0-1,0.4-1.8,1.2-2.5c0.8-0.7,1.9-1,3.1-1
		c0.9,0,1.7,0.2,2.4,0.5s1.2,0.8,1.6,1.4s0.6,1.3,0.6,2h-1.7c0-0.8-0.2-1.4-0.7-1.8s-1.2-0.7-2.1-0.7c-0.8,0-1.5,0.2-1.9,0.6
		c-0.5,0.4-0.7,0.9-0.7,1.5c0,0.5,0.2,1,0.7,1.3s1.2,0.7,2.3,1c1.1,0.3,1.9,0.6,2.5,1c0.6,0.4,1,0.8,1.3,1.3s0.4,1,0.4,1.7
		c0,1-0.4,1.9-1.2,2.5c-0.8,0.6-1.9,0.9-3.2,0.9c-0.9,0-1.7-0.2-2.5-0.5c-0.8-0.3-1.3-0.8-1.8-1.4s-0.6-1.3-0.6-2h1.7
		c0,0.8,0.3,1.4,0.9,1.8c0.6,0.4,1.3,0.7,2.3,0.7c0.9,0,1.6-0.2,2-0.5s0.7-0.9,0.7-1.5s-0.2-1.1-0.7-1.5
		C187.1,641.5,186.3,641.1,185.2,640.8z"/>
	<path d="M199.1,640.8h-5.4v5.7h-1.7v-12.8h7.9v1.4h-6.2v4.4h5.4V640.8z"/>
	<path d="M211,633.7v8.7c0,1.2-0.4,2.2-1.1,3s-1.8,1.2-3.1,1.3l-0.4,0c-1.4,0-2.5-0.4-3.3-1.1s-1.3-1.8-1.3-3.1v-8.7h1.7v8.7
		c0,0.9,0.3,1.6,0.8,2.2s1.2,0.8,2.2,0.8c1,0,1.7-0.3,2.2-0.8s0.8-1.2,0.8-2.2v-8.7H211z"/>
	<path d="M215.4,645.1h6.1v1.4h-7.8v-12.8h1.7V645.1z"/>
</g>
<g>
	<path d="M29.5,676.5v-12.8h3.6c1.1,0,2.1,0.2,3,0.7s1.5,1.2,2,2.1s0.7,2,0.7,3.1v0.8c0,1.2-0.2,2.3-0.7,3.2s-1.1,1.6-2,2.1
		s-1.9,0.7-3,0.7H29.5z M31.2,665.1v10h1.8c1.3,0,2.3-0.4,3-1.2s1.1-2,1.1-3.5v-0.7c0-1.5-0.3-2.6-1-3.4c-0.7-0.8-1.7-1.2-2.9-1.2
		H31.2z"/>
	<path d="M45,676.7c-1.3,0-2.3-0.4-3.1-1.3s-1.2-2-1.2-3.4v-0.3c0-0.9,0.2-1.8,0.5-2.5s0.9-1.3,1.5-1.7s1.3-0.6,2.1-0.6
		c1.2,0,2.2,0.4,2.9,1.2s1,2,1,3.5v0.7h-6.4c0,0.9,0.3,1.7,0.8,2.3c0.5,0.6,1.2,0.9,2,0.9c0.6,0,1.1-0.1,1.5-0.4s0.7-0.5,1-0.9
		l1,0.8C47.8,676.1,46.6,676.7,45,676.7z M44.8,668.2c-0.7,0-1.2,0.2-1.7,0.7s-0.7,1.1-0.8,2h4.8v-0.1c0-0.8-0.3-1.5-0.7-1.9
		S45.5,668.2,44.8,668.2z"/>
	<path d="M58.6,671.9c0,1.5-0.3,2.6-1,3.5s-1.6,1.3-2.7,1.3c-1.2,0-2.1-0.4-2.8-1.3l-0.1,1.1h-1.5V663h1.6v5
		c0.7-0.8,1.6-1.2,2.7-1.2s2.1,0.4,2.7,1.3s1,2.1,1,3.6V671.9z M57,671.7c0-1.1-0.2-2-0.6-2.6s-1-0.9-1.8-0.9
		c-1.1,0-1.8,0.5-2.3,1.5v4.1c0.5,1,1.3,1.5,2.3,1.5c0.8,0,1.4-0.3,1.8-0.9S57,672.9,57,671.7z"/>
	<path d="M60.7,664.5c0-0.3,0.1-0.5,0.2-0.7s0.4-0.3,0.7-0.3s0.6,0.1,0.7,0.3s0.2,0.4,0.2,0.7s-0.1,0.5-0.2,0.7s-0.4,0.3-0.7,0.3
		s-0.6-0.1-0.7-0.3S60.7,664.7,60.7,664.5z M62.4,676.5h-1.6V667h1.6V676.5z"/>
	<path d="M67.2,664.7v2.3H69v1.3h-1.8v5.9c0,0.4,0.1,0.7,0.2,0.9s0.4,0.3,0.8,0.3c0.2,0,0.4,0,0.8-0.1v1.3c-0.4,0.1-0.8,0.2-1.2,0.2
		c-0.7,0-1.3-0.2-1.6-0.7s-0.6-1.1-0.6-1.9v-5.9h-1.7V667h1.7v-2.3H67.2z"/>
	<path d="M77.8,663.7l4.2,10.4l4.2-10.4h2.2v12.8h-1.7v-5l0.2-5.4l-4.2,10.4h-1.3l-4.2-10.3l0.2,5.4v5h-1.7v-12.8H77.8z"/>
	<path d="M97,676.5c-0.1-0.2-0.2-0.5-0.2-1c-0.8,0.8-1.7,1.2-2.7,1.2c-0.9,0-1.7-0.3-2.3-0.8s-0.9-1.2-0.9-2c0-1,0.4-1.8,1.1-2.3
		s1.8-0.8,3.2-0.8h1.6V670c0-0.6-0.2-1-0.5-1.4c-0.3-0.3-0.8-0.5-1.5-0.5c-0.6,0-1.1,0.1-1.5,0.4s-0.6,0.6-0.6,1.1H91
		c0-0.5,0.2-0.9,0.5-1.4s0.8-0.8,1.4-1.1s1.2-0.4,1.9-0.4c1.1,0,2,0.3,2.6,0.8s0.9,1.3,1,2.3v4.4c0,0.9,0.1,1.6,0.3,2.1v0.1H97z
		 M94.3,675.3c0.5,0,1-0.1,1.5-0.4s0.8-0.6,1-1v-2h-1.3c-2,0-3,0.6-3,1.7c0,0.5,0.2,0.9,0.5,1.2S93.7,675.3,94.3,675.3z"/>
	<path d="M106.4,674c0-0.4-0.2-0.8-0.5-1c-0.3-0.2-0.9-0.5-1.7-0.6s-1.5-0.4-2-0.6s-0.8-0.5-1.1-0.9s-0.3-0.7-0.3-1.2
		c0-0.8,0.3-1.4,1-2s1.5-0.8,2.5-0.8c1.1,0,2,0.3,2.6,0.8s1,1.3,1,2.1h-1.6c0-0.4-0.2-0.8-0.6-1.2s-0.9-0.5-1.4-0.5
		c-0.6,0-1.1,0.1-1.4,0.4s-0.5,0.6-0.5,1c0,0.4,0.2,0.7,0.5,0.9s0.9,0.4,1.7,0.6s1.5,0.4,2,0.7s0.9,0.6,1.1,0.9
		c0.2,0.4,0.4,0.8,0.4,1.3c0,0.8-0.3,1.5-1,2c-0.7,0.5-1.6,0.8-2.6,0.8c-0.8,0-1.4-0.1-2-0.4s-1-0.6-1.4-1.1c-0.3-0.5-0.5-1-0.5-1.6
		h1.6c0,0.5,0.2,1,0.7,1.3c0.4,0.3,0.9,0.5,1.6,0.5c0.6,0,1.1-0.1,1.5-0.4C106.2,674.7,106.4,674.4,106.4,674z"/>
	<path d="M112.4,664.7v2.3h1.8v1.3h-1.8v5.9c0,0.4,0.1,0.7,0.2,0.9s0.4,0.3,0.8,0.3c0.2,0,0.4,0,0.8-0.1v1.3
		c-0.4,0.1-0.8,0.2-1.2,0.2c-0.7,0-1.3-0.2-1.6-0.7s-0.6-1.1-0.6-1.9v-5.9H109V667h1.7v-2.3H112.4z"/>
	<path d="M120,676.7c-1.3,0-2.3-0.4-3.1-1.3s-1.2-2-1.2-3.4v-0.3c0-0.9,0.2-1.8,0.5-2.5s0.9-1.3,1.5-1.7s1.3-0.6,2.1-0.6
		c1.2,0,2.2,0.4,2.9,1.2s1,2,1,3.5v0.7h-6.4c0,0.9,0.3,1.7,0.8,2.3c0.5,0.6,1.2,0.9,2,0.9c0.6,0,1.1-0.1,1.5-0.4s0.7-0.5,1-0.9
		l1,0.8C122.8,676.1,121.6,676.7,120,676.7z M119.8,668.2c-0.7,0-1.2,0.2-1.7,0.7s-0.7,1.1-0.8,2h4.8v-0.1c0-0.8-0.3-1.5-0.7-1.9
		S120.5,668.2,119.8,668.2z"/>
	<path d="M130.2,668.4c-0.2,0-0.5-0.1-0.8-0.1c-1.1,0-1.8,0.5-2.2,1.4v6.8h-1.6V667h1.6l0,1.1c0.5-0.8,1.3-1.3,2.3-1.3
		c0.3,0,0.6,0,0.7,0.1V668.4z"/>
	<path d="M135.3,675.3c0.6,0,1.1-0.2,1.5-0.5s0.7-0.8,0.7-1.3h1.5c0,0.5-0.2,1.1-0.6,1.6s-0.8,0.9-1.4,1.2s-1.2,0.4-1.8,0.4
		c-1.3,0-2.3-0.4-3.1-1.3c-0.8-0.9-1.1-2-1.1-3.5v-0.3c0-0.9,0.2-1.7,0.5-2.5s0.8-1.3,1.5-1.7s1.4-0.6,2.3-0.6c1.1,0,2,0.3,2.7,1
		s1.1,1.5,1.1,2.5h-1.5c0-0.6-0.3-1.1-0.7-1.5c-0.4-0.4-0.9-0.6-1.6-0.6c-0.8,0-1.5,0.3-1.9,0.9s-0.7,1.5-0.7,2.6v0.3
		c0,1.1,0.2,1.9,0.7,2.5S134.5,675.3,135.3,675.3z"/>
	<path d="M146.8,676.5c-0.1-0.2-0.2-0.5-0.2-1c-0.8,0.8-1.7,1.2-2.7,1.2c-0.9,0-1.7-0.3-2.3-0.8s-0.9-1.2-0.9-2c0-1,0.4-1.8,1.1-2.3
		s1.8-0.8,3.2-0.8h1.6V670c0-0.6-0.2-1-0.5-1.4c-0.3-0.3-0.8-0.5-1.5-0.5c-0.6,0-1.1,0.1-1.5,0.4s-0.6,0.6-0.6,1.1h-1.6
		c0-0.5,0.2-0.9,0.5-1.4s0.8-0.8,1.4-1.1s1.2-0.4,1.9-0.4c1.1,0,2,0.3,2.6,0.8s0.9,1.3,1,2.3v4.4c0,0.9,0.1,1.6,0.3,2.1v0.1H146.8z
		 M144.1,675.3c0.5,0,1-0.1,1.5-0.4s0.8-0.6,1-1v-2h-1.3c-2,0-3,0.6-3,1.7c0,0.5,0.2,0.9,0.5,1.2S143.6,675.3,144.1,675.3z"/>
	<path d="M155.3,668.4c-0.2,0-0.5-0.1-0.8-0.1c-1.1,0-1.8,0.5-2.2,1.4v6.8h-1.6V667h1.6l0,1.1c0.5-0.8,1.3-1.3,2.3-1.3
		c0.3,0,0.6,0,0.7,0.1V668.4z"/>
	<path d="M156.2,671.7c0-1.5,0.3-2.6,1-3.5c0.7-0.9,1.6-1.3,2.7-1.3c1.1,0,2,0.4,2.6,1.1v-5h1.6v13.5h-1.5l-0.1-1
		c-0.7,0.8-1.6,1.2-2.7,1.2c-1.1,0-2-0.5-2.7-1.4s-1-2.1-1-3.5V671.7z M157.9,671.9c0,1.1,0.2,1.9,0.7,2.5s1.1,0.9,1.8,0.9
		c1,0,1.8-0.5,2.3-1.4v-4.4c-0.5-0.9-1.2-1.3-2.2-1.3c-0.8,0-1.4,0.3-1.9,0.9S157.9,670.6,157.9,671.9z"/>
</g>
<g>
	<path d="M33.7,701.6l3.1-4.9h2l-4,6.3l4.1,6.5h-2l-3.1-5l-3.2,5h-2l4.1-6.5l-4.1-6.3h2L33.7,701.6z"/>
	<path d="M44.9,701.6l3.1-4.9h2l-4,6.3l4.1,6.5h-2l-3.1-5l-3.2,5h-2l4.1-6.5l-4.1-6.3h2L44.9,701.6z"/>
	<path d="M56.2,701.6l3.1-4.9h2l-4,6.3l4.1,6.5h-2l-3.1-5l-3.2,5h-2l4.1-6.5l-4.1-6.3h2L56.2,701.6z"/>
	<path d="M67.5,701.6l3.1-4.9h2l-4,6.3l4.1,6.5h-2l-3.1-5l-3.2,5h-2l4.1-6.5l-4.1-6.3h2L67.5,701.6z"/>
	<path d="M83.3,701.6l3.1-4.9h2l-4,6.3l4.1,6.5h-2l-3.1-5l-3.2,5h-2l4.1-6.5l-4.1-6.3h2L83.3,701.6z"/>
	<path d="M94.5,701.6l3.1-4.9h2l-4,6.3l4.1,6.5h-2l-3.1-5l-3.2,5h-2l4.1-6.5l-4.1-6.3h2L94.5,701.6z"/>
	<path d="M105.8,701.6l3.1-4.9h2l-4,6.3l4.1,6.5h-2l-3.1-5l-3.2,5h-2l4.1-6.5l-4.1-6.3h2L105.8,701.6z"/>
	<path d="M117.1,701.6l3.1-4.9h2l-4,6.3l4.1,6.5h-2l-3.1-5l-3.2,5h-2l4.1-6.5l-4.1-6.3h2L117.1,701.6z"/>
	<path d="M132.9,701.6l3.1-4.9h2l-4,6.3l4.1,6.5h-2l-3.1-5l-3.2,5h-2l4.1-6.5l-4.1-6.3h2L132.9,701.6z"/>
	<path d="M144.1,701.6l3.1-4.9h2l-4,6.3l4.1,6.5h-2l-3.1-5l-3.2,5h-2l4.1-6.5l-4.1-6.3h2L144.1,701.6z"/>
	<path d="M155.4,701.6l3.1-4.9h2l-4,6.3l4.1,6.5h-2l-3.1-5l-3.2,5h-2l4.1-6.5l-4.1-6.3h2L155.4,701.6z"/>
	<path d="M166.7,701.6l3.1-4.9h2l-4,6.3l4.1,6.5h-2l-3.1-5l-3.2,5h-2l4.1-6.5l-4.1-6.3h2L166.7,701.6z"/>
	<path d="M182.5,701.6l3.1-4.9h2l-4,6.3l4.1,6.5h-2l-3.1-5l-3.2,5h-2l4.1-6.5l-4.1-6.3h2L182.5,701.6z"/>
	<path d="M193.7,701.6l3.1-4.9h2l-4,6.3l4.1,6.5h-2l-3.1-5l-3.2,5h-2l4.1-6.5l-4.1-6.3h2L193.7,701.6z"/>
	<path d="M205,701.6l3.1-4.9h2l-4,6.3l4.1,6.5h-2l-3.1-5l-3.2,5h-2l4.1-6.5l-4.1-6.3h2L205,701.6z"/>
	<path d="M216.3,701.6l3.1-4.9h2l-4,6.3l4.1,6.5h-2l-3.1-5l-3.2,5h-2l4.1-6.5l-4.1-6.3h2L216.3,701.6z"/>
	<path d="M235.5,704c0,1.9-0.3,3.3-1,4.2s-1.7,1.4-3,1.4c-1.4,0-2.4-0.5-3-1.4c-0.7-0.9-1-2.3-1-4.1v-2.2c0-1.9,0.3-3.3,1-4.2
		s1.7-1.4,3.1-1.4c1.4,0,2.4,0.4,3,1.3c0.7,0.9,1,2.2,1,4.1V704z M233.8,701.8c0-1.4-0.2-2.4-0.6-3s-1-0.9-1.8-0.9
		c-0.8,0-1.4,0.3-1.8,0.9s-0.6,1.6-0.6,2.9v2.6c0,1.4,0.2,2.4,0.6,3.1c0.4,0.7,1,1,1.8,1c0.8,0,1.4-0.3,1.8-0.9
		c0.4-0.6,0.6-1.6,0.6-2.9V701.8z"/>
	<path d="M245.3,700c0,0.6-0.2,1.2-0.5,1.7s-0.8,0.9-1.4,1.2c0.7,0.3,1.2,0.7,1.6,1.3c0.4,0.6,0.6,1.2,0.6,1.9c0,1.1-0.4,2-1.1,2.6
		c-0.7,0.7-1.7,1-2.9,1c-1.2,0-2.2-0.3-3-1c-0.7-0.7-1.1-1.5-1.1-2.6c0-0.7,0.2-1.3,0.6-1.9c0.4-0.6,0.9-1,1.6-1.3
		c-0.6-0.3-1-0.7-1.3-1.2s-0.5-1.1-0.5-1.7c0-1.1,0.3-1.9,1-2.6s1.6-0.9,2.7-0.9c1.1,0,2,0.3,2.7,0.9C245,698.1,245.3,699,245.3,700
		z M244,706c0-0.7-0.2-1.3-0.7-1.7c-0.5-0.5-1-0.7-1.8-0.7s-1.3,0.2-1.8,0.7s-0.7,1-0.7,1.8s0.2,1.3,0.6,1.7c0.4,0.4,1,0.6,1.8,0.6
		c0.8,0,1.4-0.2,1.8-0.6S244,706.7,244,706z M241.5,697.9c-0.6,0-1.2,0.2-1.6,0.6c-0.4,0.4-0.6,0.9-0.6,1.6c0,0.7,0.2,1.2,0.6,1.6
		c0.4,0.4,0.9,0.6,1.6,0.6s1.2-0.2,1.6-0.6c0.4-0.4,0.6-0.9,0.6-1.6s-0.2-1.2-0.6-1.6S242.2,697.9,241.5,697.9z"/>
	<path d="M253,709.5h-1.6v-10.8l-3.3,1.2v-1.5l4.7-1.7h0.3V709.5z"/>
	<path d="M258.5,703.1l0.7-6.4h6.6v1.5h-5.2l-0.4,3.5c0.6-0.4,1.3-0.6,2.1-0.6c1.2,0,2.1,0.4,2.8,1.2c0.7,0.8,1,1.8,1,3.1
		c0,1.3-0.4,2.4-1.1,3.1c-0.7,0.8-1.7,1.1-3,1.1c-1.1,0-2.1-0.3-2.8-0.9s-1.1-1.5-1.2-2.6h1.5c0.1,0.7,0.4,1.3,0.8,1.7
		s1,0.6,1.7,0.6c0.8,0,1.3-0.3,1.8-0.8c0.4-0.5,0.6-1.2,0.6-2.1c0-0.9-0.2-1.5-0.7-2.1c-0.5-0.5-1.1-0.8-1.9-0.8
		c-0.7,0-1.3,0.2-1.7,0.5l-0.4,0.4L258.5,703.1z"/>
</g>
<g>
	<path d="M31.8,746v4.5h-2.6v-12.8h5c1,0,1.8,0.2,2.5,0.5s1.3,0.9,1.7,1.5c0.4,0.6,0.6,1.4,0.6,2.2c0,1.3-0.4,2.2-1.3,3
		s-2,1.1-3.6,1.1H31.8z M31.8,743.9h2.4c0.7,0,1.2-0.2,1.6-0.5s0.5-0.8,0.5-1.4c0-0.6-0.2-1.1-0.6-1.5s-0.9-0.6-1.5-0.6h-2.4V743.9z
		"/>
	<path d="M45.9,743.4c-0.3,0-0.7-0.1-0.9-0.1c-1,0-1.6,0.3-1.9,1v6.2h-2.5V741H43l0.1,1.1c0.5-0.9,1.2-1.3,2.1-1.3
		c0.3,0,0.5,0,0.8,0.1L45.9,743.4z"/>
	<path d="M47.1,738.5c0-0.4,0.1-0.7,0.4-0.9s0.6-0.4,1-0.4c0.4,0,0.8,0.1,1,0.4s0.4,0.6,0.4,0.9c0,0.4-0.1,0.7-0.4,0.9
		s-0.6,0.4-1,0.4s-0.8-0.1-1-0.4S47.1,738.9,47.1,738.5z M49.8,750.5h-2.5V741h2.5V750.5z"/>
	<path d="M55.9,748.6c0.5,0,0.8-0.1,1.1-0.4s0.4-0.6,0.5-1h2.4c0,0.6-0.2,1.2-0.5,1.8c-0.3,0.5-0.8,1-1.4,1.2
		c-0.6,0.3-1.3,0.4-2,0.4c-1.4,0-2.4-0.4-3.2-1.3c-0.8-0.9-1.2-2.1-1.2-3.6v-0.2c0-1.5,0.4-2.6,1.2-3.5s1.8-1.3,3.2-1.3
		c1.2,0,2.1,0.3,2.9,1c0.7,0.7,1.1,1.6,1.1,2.7h-2.4c0-0.5-0.2-0.9-0.5-1.2s-0.7-0.5-1.2-0.5c-0.6,0-1,0.2-1.3,0.6
		c-0.3,0.4-0.5,1.1-0.5,2.1v0.3c0,1,0.1,1.7,0.4,2.1S55.3,748.6,55.9,748.6z"/>
	<path d="M65.7,750.7c-1.4,0-2.5-0.4-3.4-1.3s-1.3-2-1.3-3.4v-0.2c0-1,0.2-1.8,0.6-2.6s0.9-1.3,1.6-1.7s1.4-0.6,2.3-0.6
		c1.3,0,2.3,0.4,3.1,1.2s1.1,2,1.1,3.5v1h-6.1c0.1,0.6,0.3,1.1,0.7,1.5s0.9,0.6,1.6,0.6c1,0,1.7-0.4,2.3-1.1l1.2,1.4
		c-0.4,0.5-0.9,1-1.5,1.3C67.2,750.5,66.5,750.7,65.7,750.7z M65.4,742.9c-0.5,0-0.9,0.2-1.2,0.5c-0.3,0.3-0.5,0.8-0.6,1.5h3.5v-0.2
		c0-0.6-0.2-1-0.5-1.3C66.4,743,65.9,742.9,65.4,742.9z"/>
</g>
<g>
	<path d="M328.5,752H326v-9.8l-3,0.9v-2.1l5.3-1.9h0.3V752z"/>
	<path d="M341.3,746.7c0,1.8-0.4,3.1-1.1,4.1s-1.8,1.4-3.2,1.4c-1.4,0-2.5-0.5-3.2-1.4s-1.1-2.2-1.1-4v-2.4c0-1.8,0.4-3.1,1.1-4.1
		c0.7-0.9,1.8-1.4,3.2-1.4s2.5,0.5,3.2,1.4c0.7,0.9,1.1,2.2,1.1,4V746.7z M338.8,744.1c0-1.1-0.1-1.8-0.4-2.3
		c-0.3-0.5-0.7-0.7-1.4-0.7c-0.6,0-1,0.2-1.3,0.7c-0.3,0.5-0.4,1.2-0.5,2.2v3.1c0,1,0.1,1.8,0.4,2.3c0.3,0.5,0.7,0.8,1.4,0.8
		c0.6,0,1.1-0.2,1.3-0.7c0.3-0.5,0.4-1.2,0.4-2.2V744.1z"/>
	<path d="M351.6,746.7c0,1.8-0.4,3.1-1.1,4.1s-1.8,1.4-3.2,1.4c-1.4,0-2.5-0.5-3.2-1.4s-1.1-2.2-1.1-4v-2.4c0-1.8,0.4-3.1,1.1-4.1
		c0.7-0.9,1.8-1.4,3.2-1.4s2.5,0.5,3.2,1.4c0.7,0.9,1.1,2.2,1.1,4V746.7z M349.1,744.1c0-1.1-0.1-1.8-0.4-2.3
		c-0.3-0.5-0.7-0.7-1.4-0.7c-0.6,0-1,0.2-1.3,0.7c-0.3,0.5-0.4,1.2-0.5,2.2v3.1c0,1,0.1,1.8,0.4,2.3c0.3,0.5,0.7,0.8,1.4,0.8
		c0.6,0,1.1-0.2,1.3-0.7c0.3-0.5,0.4-1.2,0.4-2.2V744.1z"/>
	<path d="M353.6,750.8c0-0.4,0.1-0.7,0.4-1c0.3-0.3,0.6-0.4,1-0.4c0.4,0,0.8,0.1,1,0.4c0.3,0.3,0.4,0.6,0.4,1c0,0.4-0.1,0.7-0.4,1
		c-0.3,0.3-0.6,0.4-1,0.4c-0.4,0-0.8-0.1-1-0.4C353.7,751.5,353.6,751.2,353.6,750.8z"/>
	<path d="M367.2,746.7c0,1.8-0.4,3.1-1.1,4.1s-1.8,1.4-3.2,1.4c-1.4,0-2.5-0.5-3.2-1.4s-1.1-2.2-1.1-4v-2.4c0-1.8,0.4-3.1,1.1-4.1
		c0.7-0.9,1.8-1.4,3.2-1.4s2.5,0.5,3.2,1.4c0.7,0.9,1.1,2.2,1.1,4V746.7z M364.7,744.1c0-1.1-0.1-1.8-0.4-2.3
		c-0.3-0.5-0.7-0.7-1.4-0.7c-0.6,0-1,0.2-1.3,0.7c-0.3,0.5-0.4,1.2-0.5,2.2v3.1c0,1,0.1,1.8,0.4,2.3c0.3,0.5,0.7,0.8,1.4,0.8
		c0.6,0,1.1-0.2,1.3-0.7c0.3-0.5,0.4-1.2,0.4-2.2V744.1z"/>
	<path d="M377.5,746.7c0,1.8-0.4,3.1-1.1,4.1s-1.8,1.4-3.2,1.4c-1.4,0-2.5-0.5-3.2-1.4s-1.1-2.2-1.1-4v-2.4c0-1.8,0.4-3.1,1.1-4.1
		c0.7-0.9,1.8-1.4,3.2-1.4s2.5,0.5,3.2,1.4c0.7,0.9,1.1,2.2,1.1,4V746.7z M375,744.1c0-1.1-0.1-1.8-0.4-2.3
		c-0.3-0.5-0.7-0.7-1.4-0.7c-0.6,0-1,0.2-1.3,0.7c-0.3,0.5-0.4,1.2-0.5,2.2v3.1c0,1,0.1,1.8,0.4,2.3c0.3,0.5,0.7,0.8,1.4,0.8
		c0.6,0,1.1-0.2,1.3-0.7c0.3-0.5,0.4-1.2,0.4-2.2V744.1z"/>
	<path d="M390.7,747.5h-2.9c0,0.9,0.3,1.5,0.7,1.9c0.4,0.4,1.1,0.7,2,0.7c0.6,0,1.2-0.1,1.7-0.3l0.3,2.1c-0.7,0.2-1.5,0.3-2.3,0.3
		c-1.5,0-2.8-0.4-3.7-1.2c-0.9-0.8-1.4-2-1.4-3.5h-1.5v-1.3h1.5V745h-1.5v-1.3h1.5c0.1-1.5,0.6-2.6,1.5-3.4c0.9-0.8,2.2-1.2,3.7-1.2
		c0.6,0,1.3,0.1,2.1,0.3l-0.3,2.1c-0.6-0.2-1.1-0.3-1.6-0.3c-1.7,0-2.6,0.8-2.7,2.5h2.9v1.3h-2.9v1.1h2.9V747.5z"/>
</g>
<g>
	<path d="M60.8,557.4c0,1.9-0.3,3.3-1,4.2s-1.7,1.4-3,1.4c-1.4,0-2.4-0.5-3-1.4s-1-2.3-1-4.1v-2.2c0-1.9,0.3-3.3,1-4.2
		s1.7-1.4,3.1-1.4c1.4,0,2.4,0.4,3,1.3s1,2.2,1,4.1V557.4z M59.1,555.2c0-1.4-0.2-2.4-0.6-3s-1-0.9-1.8-0.9c-0.8,0-1.4,0.3-1.8,0.9
		s-0.6,1.6-0.6,2.9v2.6c0,1.4,0.2,2.4,0.6,3.1s1,1,1.8,1c0.8,0,1.4-0.3,1.8-0.9s0.6-1.6,0.6-2.9V555.2z"/>
	<path d="M69.2,550v1.4h-0.3c-1.3,0-2.3,0.4-3,1.1s-1.2,1.7-1.3,3.1c0.7-0.8,1.6-1.2,2.8-1.2c1.1,0,2,0.4,2.7,1.2s1,1.8,1,3
		c0,1.3-0.4,2.4-1.1,3.2s-1.7,1.2-2.9,1.2c-1.2,0-2.2-0.5-3-1.4s-1.1-2.2-1.1-3.6v-0.6c0-2.4,0.5-4.2,1.5-5.4s2.5-1.9,4.5-1.9H69.2z
		 M67.1,555.8c-0.6,0-1.1,0.2-1.5,0.5s-0.8,0.8-1,1.3v0.6c0,1.1,0.2,1.9,0.7,2.5s1.1,1,1.8,1c0.7,0,1.3-0.3,1.7-0.8s0.6-1.2,0.6-2.1
		c0-0.9-0.2-1.6-0.6-2.1S67.8,555.8,67.1,555.8z"/>
	<path d="M75.3,555.6h1.2c0.8,0,1.4-0.2,1.8-0.6s0.7-0.9,0.7-1.6c0-1.5-0.7-2.3-2.2-2.3c-0.7,0-1.3,0.2-1.7,0.6s-0.6,0.9-0.6,1.6
		h-1.6c0-1,0.4-1.9,1.1-2.5s1.7-1,2.8-1c1.2,0,2.2,0.3,2.8,1s1,1.5,1,2.7c0,0.6-0.2,1.1-0.5,1.6s-0.9,0.9-1.5,1.2
		c0.7,0.2,1.2,0.6,1.6,1.1s0.6,1.1,0.6,1.9c0,1.1-0.4,2.1-1.1,2.7s-1.7,1-2.9,1s-2.2-0.3-2.9-1s-1.1-1.5-1.1-2.6h1.6
		c0,0.7,0.2,1.2,0.7,1.6s1,0.6,1.8,0.6c0.8,0,1.4-0.2,1.8-0.6s0.6-1,0.6-1.8c0-0.7-0.2-1.3-0.7-1.7s-1.1-0.6-2-0.6h-1.2V555.6z"/>
	<path d="M89.4,550v1.4h-0.3c-1.3,0-2.3,0.4-3,1.1s-1.2,1.7-1.3,3.1c0.7-0.8,1.6-1.2,2.8-1.2c1.1,0,2,0.4,2.7,1.2s1,1.8,1,3
		c0,1.3-0.4,2.4-1.1,3.2s-1.7,1.2-2.9,1.2c-1.2,0-2.2-0.5-3-1.4s-1.1-2.2-1.1-3.6v-0.6c0-2.4,0.5-4.2,1.5-5.4s2.5-1.9,4.5-1.9H89.4z
		 M87.3,555.8c-0.6,0-1.1,0.2-1.5,0.5s-0.8,0.8-1,1.3v0.6c0,1.1,0.2,1.9,0.7,2.5s1.1,1,1.8,1c0.7,0,1.3-0.3,1.7-0.8s0.6-1.2,0.6-2.1
		c0-0.9-0.2-1.6-0.6-2.1S88,555.8,87.3,555.8z"/>
	<path d="M98.5,562.8h-1.6V552l-3.3,1.2v-1.5l4.7-1.7h0.3V562.8z"/>
	<path d="M111.5,551l-5.3,11.9h-1.7l5.3-11.5h-6.9V550h8.6V551z"/>
</g>
<g>
	<path d="M60.5,588.9c0,0.6-0.2,1.2-0.5,1.7s-0.8,0.9-1.4,1.2c0.7,0.3,1.2,0.7,1.6,1.3s0.6,1.2,0.6,1.9c0,1.1-0.4,2-1.1,2.6
		s-1.7,1-2.9,1c-1.2,0-2.2-0.3-3-1s-1.1-1.5-1.1-2.6c0-0.7,0.2-1.3,0.6-1.9s0.9-1,1.6-1.3c-0.6-0.3-1-0.7-1.3-1.2s-0.5-1.1-0.5-1.7
		c0-1.1,0.3-1.9,1-2.6s1.6-0.9,2.7-0.9c1.1,0,2,0.3,2.7,0.9S60.5,587.8,60.5,588.9z M59.2,594.8c0-0.7-0.2-1.3-0.7-1.7
		s-1-0.7-1.8-0.7s-1.3,0.2-1.8,0.7s-0.7,1-0.7,1.8s0.2,1.3,0.6,1.7s1,0.6,1.8,0.6c0.8,0,1.4-0.2,1.8-0.6S59.2,595.6,59.2,594.8z
		 M56.7,586.7c-0.6,0-1.2,0.2-1.6,0.6s-0.6,0.9-0.6,1.6c0,0.7,0.2,1.2,0.6,1.6s0.9,0.6,1.6,0.6s1.2-0.2,1.6-0.6s0.6-0.9,0.6-1.6
		s-0.2-1.2-0.6-1.6S57.3,586.7,56.7,586.7z"/>
	<path d="M70.6,588.9c0,0.6-0.2,1.2-0.5,1.7s-0.8,0.9-1.4,1.2c0.7,0.3,1.2,0.7,1.6,1.3s0.6,1.2,0.6,1.9c0,1.1-0.4,2-1.1,2.6
		s-1.7,1-2.9,1c-1.2,0-2.2-0.3-3-1s-1.1-1.5-1.1-2.6c0-0.7,0.2-1.3,0.6-1.9s0.9-1,1.6-1.3c-0.6-0.3-1-0.7-1.3-1.2s-0.5-1.1-0.5-1.7
		c0-1.1,0.3-1.9,1-2.6s1.6-0.9,2.7-0.9c1.1,0,2,0.3,2.7,0.9S70.6,587.8,70.6,588.9z M69.3,594.8c0-0.7-0.2-1.3-0.7-1.7
		s-1-0.7-1.8-0.7s-1.3,0.2-1.8,0.7s-0.7,1-0.7,1.8s0.2,1.3,0.6,1.7s1,0.6,1.8,0.6c0.8,0,1.4-0.2,1.8-0.6S69.3,595.6,69.3,594.8z
		 M66.8,586.7c-0.6,0-1.2,0.2-1.6,0.6s-0.6,0.9-0.6,1.6c0,0.7,0.2,1.2,0.6,1.6s0.9,0.6,1.6,0.6s1.2-0.2,1.6-0.6s0.6-0.9,0.6-1.6
		s-0.2-1.2-0.6-1.6S67.4,586.7,66.8,586.7z"/>
	<path d="M80.7,588.9c0,0.6-0.2,1.2-0.5,1.7s-0.8,0.9-1.4,1.2c0.7,0.3,1.2,0.7,1.6,1.3s0.6,1.2,0.6,1.9c0,1.1-0.4,2-1.1,2.6
		s-1.7,1-2.9,1c-1.2,0-2.2-0.3-3-1s-1.1-1.5-1.1-2.6c0-0.7,0.2-1.3,0.6-1.9s0.9-1,1.6-1.3c-0.6-0.3-1-0.7-1.3-1.2s-0.5-1.1-0.5-1.7
		c0-1.1,0.3-1.9,1-2.6s1.6-0.9,2.7-0.9c1.1,0,2,0.3,2.7,0.9S80.7,587.8,80.7,588.9z M79.4,594.8c0-0.7-0.2-1.3-0.7-1.7
		s-1-0.7-1.8-0.7s-1.3,0.2-1.8,0.7s-0.7,1-0.7,1.8s0.2,1.3,0.6,1.7s1,0.6,1.8,0.6c0.8,0,1.4-0.2,1.8-0.6S79.4,595.6,79.4,594.8z
		 M76.9,586.7c-0.6,0-1.2,0.2-1.6,0.6s-0.6,0.9-0.6,1.6c0,0.7,0.2,1.2,0.6,1.6s0.9,0.6,1.6,0.6s1.2-0.2,1.6-0.6s0.6-0.9,0.6-1.6
		s-0.2-1.2-0.6-1.6S77.6,586.7,76.9,586.7z"/>
	<path d="M88.4,598.3h-1.6v-10.8l-3.3,1.2v-1.5l4.7-1.7h0.3V598.3z"/>
	<path d="M95.5,591.1h1.2c0.8,0,1.4-0.2,1.8-0.6s0.7-0.9,0.7-1.6c0-1.5-0.7-2.3-2.2-2.3c-0.7,0-1.3,0.2-1.7,0.6s-0.6,0.9-0.6,1.6H93
		c0-1,0.4-1.9,1.1-2.5s1.7-1,2.8-1c1.2,0,2.2,0.3,2.8,1s1,1.5,1,2.7c0,0.6-0.2,1.1-0.5,1.6s-0.9,0.9-1.5,1.2
		c0.7,0.2,1.2,0.6,1.6,1.1s0.6,1.1,0.6,1.9c0,1.1-0.4,2.1-1.1,2.7s-1.7,1-2.9,1s-2.2-0.3-2.9-1s-1.1-1.5-1.1-2.6h1.6
		c0,0.7,0.2,1.2,0.7,1.6s1,0.6,1.8,0.6c0.8,0,1.4-0.2,1.8-0.6s0.6-1,0.6-1.8c0-0.7-0.2-1.3-0.7-1.7s-1.1-0.6-2-0.6h-1.2V591.1z"/>
	<path d="M108.6,598.3H107v-10.8l-3.3,1.2v-1.5l4.7-1.7h0.3V598.3z"/>
</g>
<g>
</g>
<g>
</g>
<g>
</g>
<g>
</g>
<g>
</g>
<g>
</g>
</svg>
