<?xml version="1.0" encoding="utf-8"?>
<!-- Generator: Adobe Illustrator 21.0.0, SVG Export Plug-In . SVG Version: 6.00 Build 0)  -->
<svg version="1.1" id="Layer_1" xmlns="http://www.w3.org/2000/svg" xmlns:xlink="http://www.w3.org/1999/xlink" x="0px" y="0px"
	 viewBox="0 0 500 500" style="enable-background:new 0 0 500 500;" xml:space="preserve">
<style type="text/css">
	.st0{fill:#DAB777;}
	.st1{fill:#88C057;}
	.st2{fill:#A4E869;}
	.st3{fill:#659C35;}
	.st4{fill:#F2681C;}
	.st5{fill:#ED8F20;}
	.st6{fill:#DD7017;}
	.st7{fill:#D8A159;}
	.st8{fill:#EAC494;}
	.st9{fill:#F27575;}
	.st10{fill:#DFC28B;}
	.st11{fill:#DAAF77;}
</style>
<path class="st0" d="M294.7,42.5c-41.9,0-76,34.1-76,76v73.1h19.7v-73.1c0-31,25.3-56.3,56.3-56.3S351,87.5,351,118.5v73.1h19.7
	v-73.1C370.7,76.6,336.6,42.5,294.7,42.5z"/>
<g>
	<path class="st1" d="M379.1,146.1c0,0,32-31.4,63.5-5.9c0,0,7.9,5.6,4.9,13.6c-3,7.9-13.8,9-20.7,3.2
		C420.5,151.7,407.2,146.3,379.1,146.1z"/>
	<path class="st1" d="M379.1,146.1c0,0,13.7-42.5-21-57c0,0-11.8-6.3-19.8-1.1c-7.4,4.9-4.8,16.3,3.7,18.7
		C351.4,109.5,365.5,118.4,379.1,146.1z"/>
	<path class="st1" d="M442.3,142.3c0,0,0.3,0.2,0.6,0.5c0.6-0.9,1.2-1.8,1.6-2.9c4.3-9.7-2.3-14.7-2.3-14.7
		c-25.7-23.6-61.9,17.9-61.9,17.9c2.1-0.4,4.2-0.7,6.1-0.9C397.9,134.5,420.2,124.4,442.3,142.3z"/>
	<path class="st2" d="M358.1,89.2c26.7,11.2,24.7,39,22.4,51.1c0.1,0.2,0.1,0.5,0.2,0.7c0,0,20.5-50.9-10.1-61.4
		c0,0-10.2-5.1-18.8,2.2c-1.5,1.3-2.6,2.7-3.5,4.3C353.6,86.7,358.1,89.2,358.1,89.2z"/>
	<path class="st3" d="M414.5,83.7c-12.8-4.4-24.2,9.9-24.2,9.9c-1.6,3.4-3,6.9-4.2,10.5c1.5,14.6-3.9,32.1-6.8,40.1
		c0,1-0.1,1.9-0.1,2.5c4.4-4.9,17.5-18.3,32-24.5c3.1-3.4,6.1-7,8.4-10.8C432.5,91.3,414.5,83.7,414.5,83.7z"/>
	<path class="st2" d="M379.1,146.1c0,0,32-31.4,63.5-5.9c0,0,7.9,5.6,4.9,13.6c-3,7.9-13.8,9-20.7,3.2
		C420.5,151.7,407.2,146.3,379.1,146.1z"/>
	<g>
		<path class="st4" d="M380.4,142.2c-0.4,1.9-0.8,3-0.8,3s1.2-1.2,3.4-2.9C382.1,142.3,381.2,142.3,380.4,142.2z"/>
		<path class="st5" d="M404.8,157.4c0.4-3.9-0.5-7.4-2.2-10.5c-6.3-1-13.9-1.6-23.1-1.7c-4.5-9.1-9-16.2-13.4-21.7
			c-4.3-0.4-8.7,0.2-12.7,2.8c-12.5,8.3-51.5,110.1-55.3,143.2c-0.4,3.1,2.4,4.8,5,3C330.7,253.8,403.3,172.3,404.8,157.4z"/>
	</g>
	<g>
		<path class="st6" d="M316.8,238.9c-2.3-0.5-4.6-1.2-6.8-2.1c-1.6-0.7-3.4,0.1-4.1,1.7c-0.7,1.6,0.1,3.4,1.7,4.1
			c2.6,1.1,5.2,1.9,7.9,2.4c0.5,0.1,0.9,0.1,1.4,0c1.1-0.3,2.1-1.2,2.3-2.4C319.6,240.9,318.5,239.3,316.8,238.9z"/>
		<path class="st6" d="M396.4,158c-6.8-0.8-13.6-3.7-20.2-8.4c-1.4-1-3.4-0.7-4.4,0.7s-0.7,3.4,0.7,4.4c7.5,5.4,15.3,8.6,23.1,9.5
			c0.4,0,0.8,0,1.1-0.1c1.2-0.3,2.2-1.3,2.4-2.7C399.4,159.8,398.1,158.2,396.4,158z"/>
		<g>
			<path class="st6" d="M340.6,146.4c1.3,0,2.4,0.8,2.9,2c1.8,4.8,5.9,10.6,11.2,12.7c1.6,0.6,2.4,2.4,1.8,4.1
				c-0.4,1-1.2,1.7-2.2,1.9c-0.6,0.1-1.3,0.1-1.9-0.1c-7.1-2.8-12-9.7-14.3-15.3"/>
			<path class="st6" d="M352.5,166.9c0.6,0.2,1.3,0.3,1.9,0.1c1-0.2,1.8-0.9,2.2-1.9c0.6-1.6-0.2-3.4-1.8-4.1
				c-5.3-2.1-9.4-7.9-11.2-12.7c-0.5-1.3-1.7-2-2.9-2c-0.8,1.7-1.7,3.4-2.5,5.2C340.4,157.2,345.3,164.1,352.5,166.9z"/>
		</g>
		<g>
			<path class="st6" d="M377.7,197.2c-6,0.5-14.2-0.7-19.9-5.6c-1.3-1.1-1.4-3.1-0.3-4.4c1.1-1.3,3.1-1.4,4.4-0.3
				c4.3,3.7,11.3,4.7,16.4,4c1.4-0.2,2.6,0.6,3.2,1.7"/>
			<path class="st6" d="M378.3,190.9c-5.1,0.7-12.1-0.3-16.4-4c-1.3-1.1-3.3-1-4.4,0.3c-1.1,1.3-1,3.3,0.3,4.4
				c5.7,4.9,14,6.1,19.9,5.6c1.3-1.6,2.5-3.1,3.8-4.6C380.9,191.5,379.7,190.7,378.3,190.9z"/>
		</g>
		<g>
			<path class="st6" d="M324.3,184.1c1.3,0,2.5,0.7,3,2c1.1,3,3.7,6.7,6.9,7.9c1.6,0.6,2.4,2.4,1.8,4.1c-0.4,1-1.2,1.7-2.2,1.9
				c-0.6,0.1-1.3,0.1-1.9-0.1c-4.7-1.8-8.1-6.2-9.9-10"/>
			<path class="st6" d="M331.9,199.9c0.6,0.2,1.3,0.3,1.9,0.1c1-0.2,1.8-0.9,2.2-1.9c0.6-1.6-0.2-3.4-1.8-4.1
				c-3.3-1.3-5.8-4.9-6.9-7.9c-0.5-1.3-1.7-2-3-2c-0.7,1.9-1.5,3.8-2.2,5.8C323.8,193.6,327.2,198,331.9,199.9z"/>
		</g>
		<g>
			<path class="st6" d="M346.7,232.2c-4.3,0.5-10.5-0.3-14.8-4c-1.3-1.1-1.4-3.1-0.3-4.4c1.1-1.3,3.1-1.4,4.4-0.3
				c2.6,2.3,7.1,2.9,10.2,2.5c1.7-0.2,3.3,1,3.5,2.7c0,0.1,0,0.2,0,0.3"/>
			<path class="st6" d="M346.2,225.9c-3.2,0.4-7.6-0.2-10.2-2.5c-1.3-1.1-3.3-1-4.4,0.3c-1.1,1.3-1,3.3,0.3,4.4
				c4.3,3.7,10.5,4.4,14.8,4c1-1.1,2-2.2,3.1-3.3c0-0.1,0-0.2,0-0.3C349.5,226.9,348,225.7,346.2,225.9z"/>
		</g>
	</g>
</g>
<g>
	<path class="st7" d="M128.7,117.7c-1.4-0.9-2.6-2-3.5-3.4c-17.8-26.5-45.4-50.8-60.3-41.2C49.7,83,44.3,120.6,62,147.9l126.4,194.7
		c17.7,27.2,56.3,40.9,71.5,31c15.1-9.8,5.4-46.4-15.6-75.8c-0.2-0.3-0.3-0.6-0.4-0.9c-0.7-2.5-3.8-14.2-7.3-19.6
		c-6.3-9.8-15.7-16.1-25.5-18.5c1.8-9.9-0.2-21.1-6.5-30.8s-15.7-16.1-25.5-18.5c1.8-9.9-0.2-21.1-6.5-30.8
		c-6.3-9.8-15.7-16.1-25.5-18.5c1.8-9.9-0.2-21.1-6.5-30.8C137,124,133.3,120.7,128.7,117.7z"/>
	<path class="st8" d="M244.3,297.8c-0.2-0.3-0.3-0.6-0.4-0.9c-0.2-0.8-0.7-2.7-1.4-4.9c-1.3-0.3-2.6-0.6-3.7-0.7
		c-7.9-0.7-15.7,2.8-22.6,10.1c-0.6,0.6-1,1.4-1.2,2.2c-0.3,1.6,0.1,3.2,1.4,4.4c1.9,1.8,4.9,1.7,6.6-0.2c3.3-3.6,8.6-7.7,14.9-7.1
		c4.9,0.4,9.8,3.8,14.4,9.6C249.8,306,247.2,301.8,244.3,297.8z"/>
	<path class="st8" d="M186.4,261.4c-0.6,0.7-1.1,1.5-1.2,2.3c-0.3,1.5,0.1,3.2,1.3,4.3c1.8,1.8,4.8,1.8,6.6-0.1
		c4.9-5,11.7-7.3,19.1-6.6c6,0.6,11.8,3.1,16.7,6.9c-5.3-4.8-11.5-8-17.9-9.6c0.4-2.2,0.6-4.5,0.6-6.8
		C201.9,251.4,193,254.6,186.4,261.4z"/>
	<path class="st8" d="M153.9,211.3c-0.7,0.7-1.1,1.5-1.3,2.3c-0.3,1.5,0.1,3.1,1.3,4.3c1.8,1.8,4.8,1.8,6.6,0
		c6.3-6.3,13.7-7,18.9-6.5c6,0.6,11.9,3.2,17,7.2c-5.2-4.6-11.2-7.7-17.4-9.2c0.4-2.4,0.7-4.9,0.6-7.4
		C169.8,201.2,160.6,204.5,153.9,211.3z"/>
	<path class="st8" d="M124.8,167c-0.5,0.6-0.9,1.3-1,2.1c-0.3,1.6,0.2,3.4,1.5,4.5c2,1.7,4.9,1.5,6.6-0.5c6.1-7.1,12.5-10.4,19-10
		c4.6,0.3,9.3,2.6,13.8,6.4c-5.3-4.7-11.4-7.9-17.7-9.4c0.4-2,0.5-4.1,0.6-6.2C141.2,154.4,133.1,157.4,124.8,167z"/>
	<path class="st8" d="M97.3,117.5c-0.8,0.7-1.2,1.6-1.4,2.5c-0.3,1.4,0.1,3,1.1,4.1c1.7,1.9,4.7,2.1,6.6,0.3
		c7.7-6.9,14.6-10,20.8-9.2c0.6,0.1,1.3,0.2,1.9,0.4c-0.4-0.4-0.8-0.8-1.1-1.3c-1.9-2.8-3.9-5.6-6-8.4
		C112.1,106.9,104.8,110.8,97.3,117.5z"/>
</g>
<g>
	<path class="st3" d="M233.5,168.6c-3.8-0.8-7.4-2.7-10.2-6.7c-4.9-6.8-5.7-16.7-1.4-25.1c4.8-9.5,14.1-14.8,22.8-14
		c5-8.3,14.6-11.8,22.1-7.9c0,0,0,0,0.1,0c0.5-1.4,1.3-2.7,2.5-3.9c3.1-3.5,7.8-5,11.6-3.6c3.1,1.1,5.2,3.8,5.9,6.9
		c2.8-0.9,5.7-0.9,8.3,0.5c5.6,2.9,7.3,10.5,3.9,17c0,0,0,0,0,0.1c6.4,4.1,8.3,13.5,4.1,21.5c-0.6,1.2-1.4,2.3-2.2,3.4
		c7.8,4.6,10.2,15.7,5.2,25.2c-1.7,3.2-4,5.8-6.7,7.7c1.2,3.7,0.9,8.1-1.2,12.1c-3,5.6-8.5,8.8-13.8,8.3
		c-11.5,23.2-25.7,33.1-48.8,44.1c-0.4,0.2-0.8,0.4-1.3,0.6c-0.1,0-0.2,0.1-0.3,0.1c-9.5,4.4-19.3-7.9-11.6-15.9
		c41-42.3-7.9-58.8-7.9-58.8s6.7-15.8,18.7-10.4C233.2,169.5,233.4,169.1,233.5,168.6C233.5,168.7,233.5,168.6,233.5,168.6z"/>
	<path class="st1" d="M257.1,158.6c4.3,1,8.9,1,13.9-1.1c8.5-3.7,14.6-12.1,14.8-21.6c0.2-10.6-6.4-19.7-15.6-23
		c-0.6-9.6-8.5-17.3-18.1-17.3c0,0-0.1,0-0.1,0c0.2-1.5,0.1-3-0.4-4.6c-1.3-4.5-5.2-8-9.8-8.6c-3.8-0.5-7.2,0.9-9.6,3.4
		c-2.3-2.1-5.3-3.4-8.6-3.4c-7.1,0-12.9,5.9-12.9,13.3c0,0,0,0,0,0.1c-8.7,0.7-15.5,8.1-15.5,17.2c0,1.4,0.2,2.7,0.5,4
		c-10.3,0.4-18.6,9.1-18.6,19.8c0,3.6,1,7,2.6,9.9c-3.2,2.7-5.2,6.7-5.2,11.3c0,6.3,4,11.7,9.5,13.7c-0.7,25.9,8.3,41.2,25.8,61.8
		c0.3,0.4,0.6,0.7,0.9,1.1c0.1,0.1,0.1,0.2,0.2,0.2c7.3,8.3,23.7,2,20.1-8.6c-18.8-56.5,39.2-48.4,39.2-48.4s1.7-17.1-13.3-17.9
		c0-0.4,0-0.9,0.1-1.3C257,158.6,257,158.6,257.1,158.6z"/>
	<path class="st3" d="M210.9,234.8c-0.1-0.1-0.1-0.2-0.2-0.2c-0.3-0.4-0.6-0.7-0.9-1.1c-17.5-20.6-26.5-35.9-25.8-61.8
		c-5.5-2-9.5-7.4-9.5-13.7c0-4.5,2-8.6,5.2-11.3c-1.7-2.9-2.6-6.3-2.6-9.9c0-10.7,8.3-19.4,18.6-19.8c-0.3-1.3-0.5-2.6-0.5-4
		c0-7.2,4.3-13.4,10.5-15.9c-0.4-1.4-0.9-2.7-1.6-4.1c-3.4-6.9-9.3-11.2-14.8-10.3c-4.5,0.7-7.6,4.5-9,9.5
		c-3.8-2.6-7.9-3.6-11.7-2.2c-8.1,2.9-10.6,14.8-6,25.8c0,0,0,0.1,0,0.1c-8.7,4.3-11.1,17-5.5,28.5c0.8,1.7,1.8,3.2,2.8,4.6
		c-9.7,4.1-12.2,16.5-6.1,27.4c1.9,3.5,4.5,6.3,7.4,8.5c-1.4,3.3-1.1,7.5,1.1,11.3c2.9,5.1,8.4,8.1,13.5,8.1
		c9,18.1,20.1,25.2,36.8,32.4c0.2,0.1,0.4,0.2,0.5,0.2C212.4,236.2,211.6,235.6,210.9,234.8z"/>
	<path class="st3" d="M217.5,151c0.2-0.4,0.2-0.7,0.2-1.1c2-5.1,4.3-9.3,6.8-12.9c12.3-2.6,21.6,1.3,21.8,1.4
		c0.4,0.2,0.7,0.2,1.1,0.2c1.1,0,2.1-0.6,2.5-1.7c0.6-1.4,0-3.1-1.4-3.7c-0.4-0.2-8-3.5-18.8-2.7c5.3-5.7,10-8.3,10.7-8.6
		c4-2,9.8,0.6,11.7,1.7c0.4,0.3,0.9,0.4,1.4,0.4c0.9,0,1.9-0.5,2.4-1.4c0.8-1.3,0.3-3.1-1-3.8c-0.3-0.2-6.5-3.8-12.8-3.1
		c0.5-2.3,1.7-4.4,2.4-5.2c0.9-1.2,0.7-3-0.5-3.9c-1.2-0.9-2.9-0.7-3.8,0.5c-0.2,0.2-3.8,5.1-3.8,10.8c-4,2.5-14.3,10.1-21.5,25.4
		c-0.4,0.8-0.8,1.7-1.1,2.6c-7.5-5.2-6.3-14.6-6.2-15c0.2-1.5-0.8-3-2.3-3.2c-1.5-0.2-2.9,0.8-3.1,2.3c-0.8,5.1,0.3,15.6,9.6,21.3
		c-2,6.2-3.6,13.5-4.1,22.2c-0.1,0.3-0.1,0.5,0,0.8c-0.3,6.1,0,12.8,0.9,20.2c-3.5-2-5.1-4.8-5.2-5c-0.7-1.4-2.4-1.9-3.7-1.2
		c-1.3,0.7-1.9,2.4-1.2,3.8c0.1,0.3,3.4,6.5,11,8.9c2,11.1,5.5,23.6,11.2,37.6c1.9-0.1,3.7-0.6,5.3-1.5c0,0,0,0,0-0.1
		c-6-14.6-9.6-27.4-11.5-38.8c0-0.1,0-0.1,0-0.2c-1.4-8.5-1.9-16.2-1.6-23c3.8-6.7,15.1-7,15.3-7c1.5,0,2.7-1.3,2.7-2.9
		c0-1.5-1.2-2.8-2.7-2.8c0,0,0,0,0,0c-0.4,0-8.3,0.2-14.5,4.2c0.8-5.6,2-10.5,3.6-14.9C217.2,151.5,217.4,151.3,217.5,151z"/>
</g>
<g>
	<path class="st9" d="M198.6,42.5c-41.9,0-76,34.1-76,76v73.1h19.7v-73.1c0-31,25.3-56.3,56.3-56.3s56.3,25.3,56.3,56.3v73.1h19.7
		v-73.1C274.6,76.6,240.5,42.5,198.6,42.5z"/>
	<path class="st9" d="M343.1,180.5l29.4,137.7c0.3,1.3,0.3,2.6,0,3.9l-29.4,137.7c-1,4.7-5.4,8.1-10.6,8.1h-249
		c-5.9,0-10.8-4.5-10.8-10V182.5c0-5.5,4.8-10,10.8-10h249C337.7,172.4,342.1,175.8,343.1,180.5z"/>
</g>
<path class="st0" d="M417,182.1v275.7c0,7.2-7.1,12.1-13.7,9.5l-35.8-14c-4-1.6-6.6-5.6-6.4-9.9l9.3-261.6c0.2-5.5,4.6-9.9,10.1-9.9
	H407C412.5,171.9,417,176.4,417,182.1z"/>
<path class="st10" d="M370.7,182.1v263.1c0,4-2.3,7.6-5.8,9.3L338.8,467c-6.7,3.2-14.4-1.8-14.4-9.3V182.1c0-5.7,4.5-10.3,10.1-10.3
	h26.1C366.2,171.9,370.7,176.5,370.7,182.1z"/>
<polygon class="st11" points="370.6,468 334.7,468 352.7,454.1 370.6,440.3 388.6,454.1 406.5,468 "/>
<rect x="361" y="171.9" class="st10" width="9.7" height="9.4"/>
<rect x="370.7" y="171.9" class="st0" width="9.7" height="9.4"/>
</svg>
