<?xml version="1.0" encoding="utf-8"?>
<!-- Generator: Adobe Illustrator 21.0.0, SVG Export Plug-In . SVG Version: 6.00 Build 0)  -->
<svg version="1.1" id="Capa_1" xmlns="http://www.w3.org/2000/svg" xmlns:xlink="http://www.w3.org/1999/xlink" x="0px" y="0px"
	 viewBox="0 0 36.1 36.1" style="enable-background:new 0 0 36.1 36.1;" xml:space="preserve">
<style type="text/css">
	.st0{fill:#D6DBE4;}
</style>
<g>
	<path class="st0" d="M7.5,4.3c-0.2,0.3-0.3,0.6-0.3,1l2.6,22.6l0,0l0.6,5.2c0.1,0.6,0.6,1.1,1.2,1.1h14.2c0.6,0,1.1-0.5,1.2-1.1
		l0.6-5.2l0,0l2.6-22.6c0-0.3-0.1-0.7-0.3-1c-0.2-0.3-0.6-0.4-0.9-0.4H8.4C8,3.8,7.7,4,7.5,4.3z M24.8,31.7H12.7l-0.3-2.8h12.7
		L24.8,31.7z M27.8,6.3l-2.4,20.1H12.1L9.8,6.3H27.8z"/>
</g>
</svg>
