<?xml version="1.0" encoding="utf-8"?>
<!-- Generator: Adobe Illustrator 21.0.0, SVG Export Plug-In . SVG Version: 6.00 Build 0)  -->
<svg version="1.1" id="Capa_1" xmlns="http://www.w3.org/2000/svg" xmlns:xlink="http://www.w3.org/1999/xlink" x="0px" y="0px"
	 viewBox="0 0 36.1 36.1" style="enable-background:new 0 0 36.1 36.1;" xml:space="preserve">
<style type="text/css">
	.st0{fill:#EAECF1;}
</style>
<g>
	<path class="st0" d="M31.2,6.2H5C4.1,6.2,3.3,7,3.3,7.9v20.4c0,0.9,0.7,1.7,1.7,1.7h26.2c0.9,0,1.7-0.7,1.7-1.7V7.9
		C32.8,7,32.1,6.2,31.2,6.2z M29.5,9.5v15l-3.8-4.6c-0.1-0.2-0.4-0.2-0.6-0.1l-4.4,3.2l-7.6-7.4c-0.1-0.1-0.2-0.1-0.3-0.1
		c-0.1,0-0.2,0.1-0.3,0.2l-5.8,8.4V9.5H29.5L29.5,9.5z M19.5,15.8c0-1.5,1.2-2.7,2.7-2.7c1.5,0,2.7,1.2,2.7,2.7
		c0,1.5-1.2,2.7-2.7,2.7C20.7,18.5,19.5,17.3,19.5,15.8z"/>
</g>
</svg>
